<svg id="Camada_1" data-name="Camada 1" xmlns="http://www.w3.org/2000/svg" viewBox="0 0 479.03 479.03"><defs><style>.cls-1{fill:#22b573;stroke:#22b573;stroke-miterlimit:10;}</style></defs><title>logo</title><rect width="479.03" height="479.03"/><polygon class="cls-1" points="375.23 278.1 372.95 280.38 355.13 298.2 354.61 298.73 343.77 309.55 333.97 319.36 325.94 327.38 314.59 338.73 312.08 338.73 296.77 323.42 292.71 319.36 253.73 280.38 294.98 280.38 296.77 282.16 313.34 298.73 333.97 278.1 325.94 270.06 313.34 257.46 306.16 250.29 296.77 240.89 292.71 236.84 276.07 220.2 272.08 216.21 292.7 195.57 298.17 190.11 328.51 190.11 354.61 216.21 350.6 220.2 317.33 220.2 375.23 278.1"/><rect class="cls-1" x="345.27" y="339.05" width="30.09" height="29.19" rx="14.59" transform="translate(-144.53 358.36) rotate(-45)"/><polygon class="cls-1" points="257.15 160.02 215.89 160.02 209.24 153.36 209.24 151.38 208.25 152.37 200.6 160.02 187.61 173 179.15 181.47 170.51 190.11 166.99 193.64 149.06 211.56 146.36 214.27 149.06 216.97 179.15 247.06 179.15 250.29 182.37 250.29 188.9 256.82 209.24 277.15 209.24 279.04 207.9 280.38 212.46 280.38 210.18 278.1 209.24 277.15 209.24 236.48 209.53 236.18 209.24 235.88 209.24 220.2 182.98 220.2 188.27 214.92 208.89 194.28 209.24 194.63 230.17 215.56 238.41 223.8 238.41 249.86 237.99 250.29 238.41 250.29 238.41 348.88 209.53 320.01 209.24 319.71 199.07 309.55 167.62 278.1 149.06 259.53 146.36 256.83 103.8 214.27 118.97 199.1 125.08 192.99 127.96 190.11 149.06 169.01 158.05 160.02 166.34 151.74 179.15 138.92 186.98 131.1 188.14 129.93 207.6 110.47 209.24 112.11 227.06 129.93 228.88 131.75 257.15 160.02"/></svg>