<svg id="Camada_1" data-name="Camada 1" xmlns="http://www.w3.org/2000/svg" viewBox="0 0 470.2 408.15"><defs><style>.cls-1{fill:#22b573;}</style></defs><title>alien-3</title><path class="cls-1" d="M332.87,387.33h0Z" transform="translate(-160.9 -101.92)"/><polygon class="cls-1" points="78.48 404.7 78.48 404.7 78.48 404.7 78.48 404.7"/><polygon class="cls-1" points="185.38 220.68 185.38 220.68 185.38 220.68 185.38 220.68"/><polygon class="cls-1" points="20.57 378.8 20.57 378.8 20.57 378.8 20.57 378.8"/><polygon class="cls-1" points="22.79 386.07 22.78 386.07 22.77 386.07 22.79 386.07"/><polygon class="cls-1" points="12.9 385.9 12.9 385.9 12.89 385.9 12.9 385.9"/><polygon class="cls-1" points="268.95 361.07 268.95 361.07 268.95 361.07 268.95 361.07"/><path class="cls-1" d="M437.15,469.53h0Z" transform="translate(-160.9 -101.92)"/><path class="cls-1" d="M437.15,469.53Z" transform="translate(-160.9 -101.92)"/><polygon class="cls-1" points="410.43 348.91 410.43 348.91 410.43 348.91 410.43 348.91"/><path class="cls-1" d="M307.92,202.49a56.47,56.47,0,0,0-5.65-3.35,35,35,0,0,0-6.17-1.74,34.05,34.05,0,0,0-8.62-.57,13.38,13.38,0,0,0-4.89,1.92l-.61,2.53a29.1,29.1,0,0,0-11,18.9q-1.44,10.15,6.38,14.64c2.05,1.24,5.21,2,9.49,2.21q4.23.56,11.85-2.34,11.29-4.8,14.84-15.76Q315.8,208.51,307.92,202.49Z" transform="translate(-160.9 -101.92)"/><path class="cls-1" d="M400.75,191.37l-1.95-1.21q-4.68-.69-12.1,2.57-5.93,2.63-10.73,9.69-7.91,12.74,2.55,19.09,6.62,3.75,15.93,2.7,10.68-2,15.52-8.42,5.19-7.93,3.57-13.44Q409.51,193,400.75,191.37Z" transform="translate(-160.9 -101.92)"/><path class="cls-1" d="M489.78,205.4q-10.57-5.39-21.8.09Q455.4,213.43,460,221l-1.9-1.13q-.08,2.51,2.58,5a46.44,46.44,0,0,0,9.8,6.6q4.58,2.52,13.07-.63Q490.54,228,494,216.59,496,209.29,489.78,205.4Z" transform="translate(-160.9 -101.92)"/><path class="cls-1" d="M417.83,185.82a23.58,23.58,0,0,0-7-3Z" transform="translate(-160.9 -101.92)"/><path class="cls-1" d="M389.31,180.38q-7.08,3.06-8.41,4.16-9.88,6.27-20.55,22.37a16.17,16.17,0,0,1,1.77-2.34l9-8.94a70.72,70.72,0,0,1,6.67-5.3c2.84-1.92,4.28-2.83,4.3-2.71l10.65-4.42q4.72-1.27,4.78-1.09,3.19-.54,11.13.14c.77.17,1.5.36,2.21.56l-10.06-4.34C398.68,178.2,394.86,178.84,389.31,180.38Z" transform="translate(-160.9 -101.92)"/><path class="cls-1" d="M289.63,191a32,32,0,0,1,11.46-2.53l-6.72.37q-11.3.23-19.64,9-10.12,10.88-15.4,28.08,3.74-11,17.44-26.1Q279.64,196.3,289.63,191Z" transform="translate(-160.9 -101.92)"/><path class="cls-1" d="M453.16,207a76.52,76.52,0,0,1,8.93-3.6q11.32-3.62,14.24-3.7l4.81-.33c.15-.05,2.5,0,7,.12,4.83.37,7.5.61,8,.74l4.28.76,1.73.56-4-1.77-3.93-1.38q-6.43-1.6-6.74-1.46a43.47,43.47,0,0,0-6.52-.31,42.93,42.93,0,0,0-4.89.54l-5.32,1.07a63.41,63.41,0,0,0-7.3,2.33C458.61,202.75,455.17,204.89,453.16,207Z" transform="translate(-160.9 -101.92)"/><path class="cls-1" d="M503.61,183.6c-.53-1-1.12-2-1.79-3.22Z" transform="translate(-160.9 -101.92)"/><path class="cls-1" d="M284.09,181.13c1.14-.3,4.45-.14,9.92.5q7-2.13,8-1.25,4.11.87,7.64,7.73l6.71-8.14A5,5,0,0,1,319,178.3l-.48,6.17q11.86-12.54,13.56-12.84c.93-.47,1.38-.38,1.36.26l-1.26,5.27q0,.33.42-.06l24.18-22.54c1.11-.58,1.53-.17,1.27,1.26a84.56,84.56,0,0,1-5.14,9l.56-.41q7.72-8,28-21.89,9.93-8.62-1.12-3.92,3.69-2.67,41.83-8.94-17.43-1-19.62-3.79,20.34-1.44,51.91.47Q432.87,116,418.77,114.81q-30.43-2.24-52.48,3.83-51.56,13.61-83.67,56.56l-8.48,11.18A24,24,0,0,1,284.09,181.13Z" transform="translate(-160.9 -101.92)"/><path class="cls-1" d="M274.14,186.38a12.58,12.58,0,0,0-2.54,3.35Z" transform="translate(-160.9 -101.92)"/><path class="cls-1" d="M232.25,278.12q-16.31,6.83-54.81,29.13l-7.77,6.58,35.5-16.39,6.14-2.22q21.23-10.31,46.49-20.17,6.66-3-13.94,3.45,25.77-11.6,29.53-14.64Q277.49,260.53,232.25,278.12Z" transform="translate(-160.9 -101.92)"/><path class="cls-1" d="M362.73,246.54q-9.17.26-13,.64l-17.11,2.14q-23.13,4.11-30.18,7.05l-17.25,9.09q2.5-1,17-2.09c1.15-.09,2.28-.15,3.37-.18q3.25.15,13.54-.29,9.17-1.36,20.82-2,4.32,0,17.66-.66c7.44-.23,12.92-.29,16.41-.17q4.11-.35,11.74-.4l18.87-.84c3.39-.2,5.84-.37,7.35-.53,2.53-.28,2.6-.56.19-.82l-8.59-1.13-19.67-2.06c-.78-.08-1-.14-.64-.18q17.79-.6,19.45-.56,7.14-.13,23,0,5-.22,8.3-.13a2.29,2.29,0,0,0,1-.17q-1-1.29-35.82-5.32A326.69,326.69,0,0,0,362.73,246.54Z" transform="translate(-160.9 -101.92)"/><path class="cls-1" d="M508.36,272.05c.26.11,1.93.5,5,1.17q7.06,1.61,30.68,4.75l11.58,2.48q3.25.62,18.91,5.59,16.53,4.21,19.79,4.83,9.54,1.94,6,.06-10.74-4.71-25.27-10.27,8.49,2.26,27.1,6.07,7.64,1.53,3.94-.3A296.34,296.34,0,0,0,560,270.67l-10-2.13-54.88-10q-10-1.65-20.69-2.95l14.16,6.48q-1.5-.63-13.57-2.92l13.22,4c.13.1-.1.14-.68.12l-8.66-.5-12.82-1.72-4.13-.76-6.82-1.62c-.63-.14-.62-.12.05.06l12.71,3.33q20.61,3.86,25.35,5.13Q497,268.18,508.36,272.05Z" transform="translate(-160.9 -101.92)"/><path class="cls-1" d="M631,288.37a7.48,7.48,0,0,0-4.57-5.83,20.14,20.14,0,0,0-7-1.27q-31.46-12.47-84.89-25c-1-1.5-2-3.28-3.19-5.33q-5.42-69.22-38.7-109.73-10.25-14.37-47.05-33.76a4.89,4.89,0,0,0-.75-.3q-15.5-4.3-18.21-4.54h0a5,5,0,0,0-1.35.07q-27.5-1.57-42.6.09l-.27,0q-27.39,5-40.38,10.43l-.23.11L316.57,126l.12-.06q-17.46,8-40.84,34l-.07.09Q239.3,203.18,240.06,266.3a707.65,707.65,0,0,0-75.35,38.21,3.58,3.58,0,0,0-1.62,2,3.57,3.57,0,0,0-2.07,4.19c.33,1.2.51,1.94.56,2.21a.22.22,0,0,0,0,.08l.81,5.9,0,.2c.18.86.27,1.39.3,1.59v0l.28,2.75,0,.27a4.7,4.7,0,0,0,1.8,3h0l0,0,0,0h0a4.75,4.75,0,0,0,3.82.94c1.67,1.67,3.4,3.3,5.2,4.87l-.22.16.82.36q15.14,13,36.64,21.34,16.77,7.11,31.13,12.36l-57.76,114h-.89c-.17,0-.65,0-1.45,0h-.74c-.41,0-1.2,0-2.35.12-.24,0-.47,0-.69,0a32.34,32.34,0,0,1-3.4-.14h0l.07,0h0a3.73,3.73,0,0,0-4.49,2.68,3.61,3.61,0,0,0,2.78,4.34l.4.07a37.23,37.23,0,0,0,4.55.24h0c.34,0,.7,0,1.06,0h.12c1-.07,1.63-.11,1.86-.11h.51l1.75.05h0c.63,0,1.29,0,2,0h.52l.56,0c1.08.16,2,.26,2.63.3l-.75-.12a4,4,0,0,0,.82.12h0c.36,0,1.59.06,3.71.12.7,0,1.25.05,1.64.08h.14l2.07.26H197c.42,0,1.1.09,2,.12l.38,0h0l1.88.29a3.72,3.72,0,0,0,4.3-3,3.62,3.62,0,0,0-3.07-4.15l-2.21-.34h-.19l-.64-.06h-.21q-1,0-1.35-.06c-1.27-.18-2.1-.28-2.5-.31h-.08c-.51,0-1.18-.08-2-.11h0l-.7,0,56.7-111.9q10,3.48,18.72,6l.16,0q43.15,10.29,64.64,12l3.58.29,4.18,1.57.27.09,17.94,5.26Q330,416.49,292.07,442.13l-.27.2q-36.19,29.48-54.63,41.84a3.54,3.54,0,0,0-1.37,4.22,3.75,3.75,0,0,0,.6,1,3.43,3.43,0,0,0-.69,1.8q-.72,8.83-.05,11.52l0,.05a5.49,5.49,0,0,0,3.7,3.86,5.18,5.18,0,0,0,.56.17,4.74,4.74,0,0,0,1.87.39h0c.37,0,1.2,0,2.49-.07a23.07,23.07,0,0,0,2.58.07,68.57,68.57,0,0,0,8.23-.94q1.77-.14,3.69-.24l.34,0q4.39-.63,5.19-.66h.13q15.9-.6,21.56-1.12l18.56.63h.21l7.41-.13a4,4,0,0,0,.7.11q8.49,1.14,17.64,1.81l6.55,1.19,4.45.47a21.12,21.12,0,0,0,2.39.4l.18,0a3.4,3.4,0,0,0,.83.77,3.83,3.83,0,0,0,5.19-.95q11.69-16.61,94.53-91.88l.15-.14,4.14-4.24v28.25c0,.71,0,1.25,0,1.63v0c.13,1.79.19,2.91.18,3.37v.07c0,.2,0,.39,0,.58h0v10.92a3.51,3.51,0,0,0,1.24,2.66c-3.25.68-5.46,1.12-6.61,1.33h-.05c-.58.11-1.9.31-3.95.59l-.24.05c-1.82.37-2.91.57-3.28.61h0c-1.35.1-2.93.31-4.75.63h-1.7a3.61,3.61,0,1,0,0,7.21c1.17,0,1.95,0,2.35,0h0c.22,0,.42-.05.63-.09h0c1.67-.29,3.08-.48,4.21-.56h.17c.62-.07,1.91-.31,3.87-.71,2.11-.29,3.52-.51,4.22-.64h-.05c1.38-.25,4.07-.79,8.1-1.64h0c1.89-.39,4.08-.89,6.56-1.52q4.59-.82,6.31-1.26l4.52-.68a3.63,3.63,0,0,0,3.12-4.12,3.73,3.73,0,0,0-4.27-3l-4.7.71-.4.09c-.92.24-2.94.64-6.08,1.21l-.26,0-1.67.42a3.56,3.56,0,0,0,.27-1.34V446.19c0-.24,0-.47,0-.71v.08c0-.62-.06-1.91-.19-3.84,0-.27,0-.69,0-1.27V411.67h0c0-.39,0-.94-.05-1.65v-.13q-.14-1.42-.15-1.8v0c0-.28,0-.55,0-.83a3.49,3.49,0,0,0-.59-1.93q18.57-19.67,20.93-26l3.06-.64q24.45-4.9,60.73-16.07,8.22,18.09,18.41,42.21h0q2.85,6.81,8.25,22.57c2.06,7.85,3.4,12.45,4,13.77h0a4.26,4.26,0,0,0,.76,1.15c-2,1.16-3.14,1.84-3.56,2h0l.08,0-.36.16c-1.55.77-4.14,1.88-7.78,3.31a3.56,3.56,0,0,0-2,4.7,3.77,3.77,0,0,0,4.87,2c3.76-1.48,6.52-2.66,8.27-3.52l.1-.05c.76-.33,2.55-1.35,5.35-3l14.23-7a3.54,3.54,0,0,0,1.62-4.85,3.8,3.8,0,0,0-5-1.57L578.17,439a3.44,3.44,0,0,0-.4-.87q-.72-1.74-3.58-12.64l-.08-.25q-5.5-16.08-8.45-23.12v0q-10-23.77-18.18-41.72c2.79-.87,5.61-1.77,8.49-2.7l.38-.14q40.93-18.24,65.73-44.49a3.53,3.53,0,0,0,1-2.35c.09-.13.18-.23.28-.36q2.28-3.3,5.76-12.72,1.27-3.52,1.76-5.48A11.36,11.36,0,0,0,631,288.37ZM199.1,488.91h0Zm2.89-.64a3.53,3.53,0,0,1-2.43.67A3.73,3.73,0,0,0,202,488.27Zm-15.85-.3h0Zm243.73-24.32a3.39,3.39,0,0,1,1.41-.61A3.78,3.78,0,0,0,429.87,463.65Zm147.7-25.84a3.78,3.78,0,0,0-1.88-1.29A3.36,3.36,0,0,1,577.57,437.81ZM419.89,265.2h-.23l-32.74-1.31h0q-4.2-.12-8.08,0h0l-54.86,2.41h-.18q-33.11,3-58,10.63l-.2.07q-76.11,28.13-92,39.72c-.8.44-2,1.15-3.58,2.12-.06-.29-.12-.65-.21-1.07L169,312l0,.49a4.6,4.6,0,0,0-.08-.79h0c0-.24-.12-.61-.24-1.1A701.26,701.26,0,0,1,242.8,273a3.43,3.43,0,0,0,1.16.16,3.7,3.7,0,0,0,3.23-2q56.58-23.66,103-27.64L393.7,242q16.51-.56,58.68,5.47,55.62,10,73.92,14.34h0Q584,275,616.82,288q1.93,6.13-2.87,17.39-41.44-18.54-139.71-34.82l-.25,0Zm-252.7,55.1.35.12h0Zm.59.21h0l1.49.49,0,0ZM429.07,108.32a3.37,3.37,0,0,0,.21-.31,3.52,3.52,0,0,0-.38-3.91C430.16,105.64,430.2,107.05,429.07,108.32ZM281.54,164.58q22.32-24.84,38.34-32.14l.12-.06,25.17-12.55q12.21-5.07,38.57-9.9,14.67-1.61,42,0a3.87,3.87,0,0,0,.84-.05q2.91.5,15.87,4.1,35.13,18.54,44.22,31.46l.17.22Q518.79,184.52,524,251.78a3.49,3.49,0,0,0,1.12,2.29c-2.1-.48-4.46-1-7.1-1.55a171.94,171.94,0,0,0-.47-17.33q-1.26-13.6-2.57-22.1l-1.23-4.67-6.32-18-3.81-6.86a31.19,31.19,0,0,1,2.66,5.81,52.06,52.06,0,0,1,1.41,9.82c.16,6.61.05,10.21-.35,10.79a11.31,11.31,0,0,1-1.27,2.92c-.09.31-.85.7-2.28,1.15-.15,0-.27.26-.35.62a42.93,42.93,0,0,1,.82,8.48,1.11,1.11,0,0,1-1.62.56,23.63,23.63,0,0,1-4.14-5.16c-.29-.27-.55-.29-.76-.05q.5,14.66-2.88,19.86a31.18,31.18,0,0,1-7.39,8.11q-10.47-2-23.16-4.27a25.26,25.26,0,0,0-2.48-8.52q-.22-1.36-6.54-4.29l-2.48-4.61-3.32-1.21-.47-8.18a3.12,3.12,0,0,0-.38-1.58c-.21-.22-.41-.27-.61-.15-1,1.33-1.67,1.92-2,1.77L449,199.42l.18-15.67c-.43,1.91-1.06,2.15-1.89.74q-2.52-2.67-7.49-12.05,3,9.45,2.61,10.12t-2.25-1.2a94.08,94.08,0,0,1-6.58-7c-.33-.36-.61-.45-.82-.29q3.81,14.19,2.47,18-.49,2.34-4.52-.16-1.16,5.79-2.59,7.14-.72,1.32-5.21,2.24,4.49,9.72-4,22.37A37.57,37.57,0,0,1,406.62,235q-7.83-.47-13.19-.28h0l-19.5.7-5.48-12.32a18.61,18.61,0,0,0-1.38-2.36q.06.91-6.92-9.54l-4.62-1.18c-.53-.14-.88-.91-1-2.3a11.68,11.68,0,0,1,.19-2.5q.56-1.69,3.13-13.88a31.58,31.58,0,0,1,1.34-4l4.32-9.2q5.19-9.84,7.8-12.72c.87-1.64,1.16-2.44.86-2.42q-3.08,0-25.13,20c-.25.08-.32-.06-.21-.4a19.79,19.79,0,0,0,2.66-6.36q.29-1.62-1-1.17Q345,177.57,338,187.43a20.14,20.14,0,0,1-3.25,3,2,2,0,0,1-2.15-.06l-1.56-3c-.27-.34-.56-.25-.89.28q-3.15,4.63-6.39,16.25c-.08.86-1.28,1.12-3.59.78q1.28,2.57,4.91,17.26c.27,1,0,3.48-.67,7.46-.21,2.47-2.16,6.3-5.82,11.51a357.39,357.39,0,0,0-42.19,11.49,15.19,15.19,0,0,1-4.22-3.77,20,20,0,0,1-2.67-4.33c-.14-.3-.34-.81-.6-1.54-1.21-3.63-1.91-5.83-2.08-6.61a.85.85,0,0,0-1.58-.14c-.42.37-1.74,2.65-3.93,6.84-.22.31-.43.4-.65.26L260,240a3.82,3.82,0,0,0-.53-1.11.61.61,0,0,0-.46-.22c-1.2.32-1.79.41-1.79.28a2.25,2.25,0,0,1-1.33-1.16c-.58-.79-1.14-3.4-1.66-7.84a.41.41,0,0,0-.43-.36c-1.12,3.95-1.66,6.45-1.62,7.52q-.19,4.41-.24,11a60.29,60.29,0,0,1-.65,6l-.07,4.92.18,2.54-3.84,1.55Q247.69,204.7,281.54,164.58Zm-5.6,189.67Zm74,13.54q29.2,9.36,33.75,8.69l-6.26-4.4a209.58,209.58,0,0,1-21.23-11.79,125.31,125.31,0,0,0,37.12,12,27.54,27.54,0,0,0-3.85-2.84l-27.17-14.77q12.57,5.76,31.18,10.13t21.38,3.86q-8.41-3-16.07-6.34,7.89,2.46,20.37,5.91l.16,0,29.24,6.77c-1.38,0-3,.14-5,.28l-1.31.17-.74-.08q-14-1.77-24.59-4c-.5.05-.5.27,0,.67q7.57,3.74,7.07,4.28a10.24,10.24,0,0,1-3.91-.1q-10.5-1.53-18.46-3.12c-.47.26-.39.64.23,1.13l4.85,2.9c.33.22.42.41.28.55a4.52,4.52,0,0,1-2.46.35l-13-1.17c3.19,1.68,4.88,2.74,5.06,3.2.61.42,0,.7-1.73.82a28,28,0,0,1-6-.41q-11.2-1.75-16.92-2.07c-.75,0-1.19.1-1.31.43l1.3,1.69a4.22,4.22,0,0,1-2.44.57q-1.72,0-7.71-.65-3.63-.3-10.18-1.29l-7.68-.66a72.9,72.9,0,0,0-7.88.06l-3.18-.05-19-7.17c-3.48-1.56-6.69-3.05-9.69-4.49q19.95,6.25,48.67,9.94,13.63,1.29,13.54-.62Q368.16,375.6,349.92,367.79Zm38.37,91c-.85.55-2.19,1.46-4.06,2.77-.34.17-.5.12-.49-.15l6.2-7.49c.83-1.15,1-1.61.57-1.39a38.39,38.39,0,0,0-3.52,2.22L372.81,466q12.66-13.06,15.19-18.43a189.49,189.49,0,0,0-17,14.62q24.27-24.12,62.83-58.74Q420,416.18,410.24,426.94c.25.11,2.93-1.52,8-4.89q11.58-8.76,17.72-12.65l-13.12,13.23q1.5.36,15.09-9.81Q408.65,439.46,388.29,458.76Zm-104.35,22.5h-.32q-10.75.8-24.11.71l4.73-1a58.82,58.82,0,0,1,9.9-.35q10.2-2,12.05-1.6l14.48-2.73a158,158,0,0,0,26.17-1.48q4.83-.72,6.4-1.84c.89-.64.62-1.06-.79-1.26q-22.26-2.44-31.41-6,19.83-.94,28.06-1.91,5.77-.71,5.91-1.59c.31-.68-.23-1.23-1.63-1.66q-21.79-6.19-24.2-6.48Q355,451,356.34,448.89q4-1.26-2.47-3.17a166.54,166.54,0,0,0-21.6-4.87c-2.22-.68-3.39-1.19-3.53-1.51q4.5-1.87,34.58-5.49c2.29-.44,3.45-.89,3.5-1.37q-11-2.09-33.95-2.81,37.69-1.08,56-5.13c1.59-.7,1.41-1.16-.56-1.39q-36-2.65-37.83-4.89l43.65-5.1c1.26-.56,1.3-1,.12-1.31q-29-3.15-26.1-3.82,35.94-4,34.71-4.55,4.9-.64-19.93-2.07l26.46-2.86c3.25-.51,5-1.05,5.33-1.6a297.27,297.27,0,0,0-40.95-4.72l.91-.71a3.53,3.53,0,0,0,1.31-2.2q11.19.15,23.32,0h.11q20.64-.85,31.24-2.29h0q6.17-.76,12.5-1.72-67,59.54-96.4,91.38l-.14.16q-4.14,5.07-12.43,4.91h0ZM244.63,501.1a2,2,0,0,1,.17.23,2.11,2.11,0,0,0-.19-.23Zm120.78-112h.48l-.21.17A1.81,1.81,0,0,0,365.41,389.09Zm-123,118h0a3.77,3.77,0,0,0,.58-.14h0A5,5,0,0,1,242.45,507.08ZM286.05,497a4.18,4.18,0,0,0-.5,0q-5.34.51-21.35,1.12h-.07q-1.25,0-5.94.71c-1.25.07-2.44.15-3.59.23l5.15-1.11,8.83-1.15,6.25-1.24c.47-.13.58-.25.34-.34-1.15-.32-2.27-.58-3.36-.77l-10-1a8.23,8.23,0,0,1-2.73-.54q1.95.1,8.73-.24l6.76-.84c.83-.14,1.24-.3,1.22-.48s-.17-.18-.48-.22q-3.79-.37-3.81-.33c-.19,0-2,0-5.39.06L261,490.7q-2.82.07-9.75-.12c-1.91-.05-4.63,0-8.17.2a2.59,2.59,0,0,0-.09-.4l12.19-1.24q16.14.27,28.83-.67l50,.52h0a27.1,27.1,0,0,0,9.46-1.36q.8,7.72-.1,9.86a3.53,3.53,0,0,0-.15.46l-.12.4-2.61.45-3.61-.06-5.14-.53-.2,0-15-.78h-.27l-11.52.2ZM553.39,350.88l-9,2.85-1.1-2.39a60.42,60.42,0,0,0,9.12-5.12,143.11,143.11,0,0,0,22-18.6q-.35-.47-5.75.91-31.1,9.41-35.49,9.31c-.56-.14.21-.8,2.32-2l17.89-9.08q5.55-3.66,4.43-3.63-8.39-1.32-33.61.41c-5.62.07-7.66-.27-6.15-1q-1.64-1.72,26.91-11.76,8-3.9,5.53-3.76c-.8-.89-3.79-1.68-9-2.35q-35.83-2.28-41.67-4.59c-.64-.16-.84-.59-.62-1.28,2.62-2.75,3.91-4.4,3.89-5a3.09,3.09,0,0,0-.19-2.54q-.31-3-9.6-5.11-26.88-6.18-46.1-4.7-29.85,6.43-32,5.87l-13.39,3.15A110.64,110.64,0,0,0,379,298l-18.48,13a355.77,355.77,0,0,0,61.1,35.27,143.76,143.76,0,0,0,37.57,13.12l10.81,1.6,29.65,2a39.12,39.12,0,0,0,8.84-.58q9.17-1,28-8.15c.27.56.53,1.13.8,1.71Q501.86,366.83,478,371.6h0c-2.2.47-4.37.92-6.54,1.36l-50.32-11.65q-27.25-7.51-31.08-9.79a3.59,3.59,0,0,0-.85-.37q-10.43-3.12-35-26.58a3.83,3.83,0,0,0-.73-.54,10.1,10.1,0,0,0-6.05-1.4,6.74,6.74,0,0,0-1.11,0q-3.55.19-19.45,5.91l-.18.07q-16.47,6.87-50.65,17.83l-.09,0a21,21,0,0,0-4.07,1.77h0c-2,1.29-2.69,2.91-2,4.86h0a3.85,3.85,0,0,0,1.15,1.6q6.47,8,36.34,21.7-15.48-2.86-36.17-7.78A1.45,1.45,0,0,0,271,367l-15.61-13.44q-2.47-2.46-1.11-3,16.66-8.14,19.82-8.61l32-18.22q39.44-15.58,37.48-15.59,3.52-2,1.44-1.8l-11.25,2.09,34.61-15c.55-.57.22-.9-1-1-.4-.13-3.49.2-9.25,1-1,.07-1.24,0-.7-.29q6.45-1.92,39.47-9.28l14.55-4.31c1.49-.78,1.7-1.53.62-2.23q-10.8.51-47.75-.25l-41.51,2.25q-31.59,3.47-46.09,7-10.49,1.39-48.71,16.07Q198.17,316,180.1,328.21c-1.59-1.35-3.14-2.73-4.62-4.15q1.17-.71,1.74-1l.09-.05.08,0a.5.5,0,0,0,.13,0,3.72,3.72,0,0,0,1.77-1.26q16.54-11.13,88.81-37.84,24.07-7.36,56.28-10.3l54.76-2.4h0q3.6-.15,7.51,0l32.6,1.3,53.85,5.31q99,16.4,139.11,34.86Q589.31,334.84,553.39,350.88Z" transform="translate(-160.9 -101.92)"/></svg>