<svg id="Camada_1" data-name="Camada 1" xmlns="http://www.w3.org/2000/svg" viewBox="0 0 499.76 344.61"><defs><style>.cls-1{fill:#22b573;}</style></defs><title>alient-2</title><path class="cls-1" d="M643.5,305.34q3.66-8.83,1.7-15.87a37.2,37.2,0,0,0-9.79-16q-.36-.81-.78-1.62a35.7,35.7,0,0,0-3.81-5.68,2.55,2.55,0,0,0-.44-.43,17.16,17.16,0,0,0-5-2.52l-.08,0-40-11.05-.28-.05-38.62-4.85h-.2c-.56-.06-2.83-.66-6.78-1.79q.78-9.47-7.13-26.59h0q-2.91-6.27-7-13.66l-.12-.2q-34.32-51.54-64.31-62.39-12.22-6.84-39.82-8.83h-.07q-14.55-.45-35.68,4.33h.1q-27.72,4.88-52.95,35.86l-.19.27q-27.87,44.51-34,88.31a10.32,10.32,0,0,0-3.48-.08h0l-9.83,1.84h0q-4.22-1.59-40.21,2.34-12.09.76-51.26,17.81l-.24.12q-57.54,34.19-44.67,65.31h0v0l.07.13q15.72,32.79,50.25,43.52,27.6,10.56,44.35,13.65h.06l39,5.89c1.36,1.85,2.83,3.68,4.4,5.51a3,3,0,0,0,.49.87q22.08,26.34,59.46,44.82l.24.1q38.79,13.39,46.08,12.72c9.72.89,15.12,1.29,16.18,1.23h0a2.87,2.87,0,0,0,.62-.1l18.91-1.54.14,0q83.24-13,107.14-80.36a348.59,348.59,0,0,0,36.62-12.59l.09,0q55.84-26,65-60.22A89.56,89.56,0,0,0,643.5,305.34ZM545.93,247.2l-.33.06Zm-7.71,3.49a75.39,75.39,0,0,0,7.51,1.94h.2l38.43,4.83,32.84,9a25.1,25.1,0,0,1,8.18,8.71,3,3,0,0,0,.73,1.47q.21.48.39,1a26.22,26.22,0,0,1,2.45,9,16,16,0,0,1-.11,2.67l-1,5.82a48.61,48.61,0,0,1-8.58,8.09q-30.45,22.65-84.67,35.25h-.07q-57,15.33-125.11,20.83-14.47-.3-39.07,2.17-22.08-.53-34,.16-20.43-2.18-38.67-2.35l-25.13-2.91-34.43-6.8Q222,343.85,210.57,341h-.08q-6-1.27-19.17-11.32a17.47,17.47,0,0,1-4-5.57h0q-5.34-12.79,24.18-30.54A250.92,250.92,0,0,1,257.1,275L294.3,268q1.35,2.4,2.89,4.71a2.64,2.64,0,0,0,1.2,1.72q18.66,26,64,37.07l.22,0q38.59,4.77,62.35,2.16,12.63-.54,40.21-7.91h0q37.5-11,69.6-51.38a10.31,10.31,0,0,0,3.22-3.8Zm-173.43-.9c3.15.13,4.9.18,5.26.16h0c2.53-.12,4.28-.16,5.24-.12h.13q.76,0,11.53.61c1.8.16,3.53.31,5.21.43,1.92.28,3.54.46,4.9.56a7.92,7.92,0,0,1,0,1.08c-.51.51-1.25,1.2-2.22,2.09-3,2-5.27,3.7-7,5a.85.85,0,0,0-.36-.05q-9.06.54-9.83.48h-.24l-12.24,1.31-6.34.52h-.08l-2.61.43-6.69.53h0l-9.29,1.07h0q-7,1.15-13.63,1.87h-.06q-13.86,2.39-16.13,2.95l-1,.1,5.42-1.75q5-1.1,14.19-3.53l23.9-4.64c.56-.21.6-.35.12-.43q-7.51.1-8.15-.71,9.4-1.77,11.72-1.94.65-.12.51-.27l-10.11-.1a21.68,21.68,0,0,1-3.57-.49q14.93-2.38,18.53-4.63c.2-.1-.21-.18-1.24-.24l-3.19-.07c1.16-.07,2.12-.1,2.88-.11h0Zm21.79-26.38a49.5,49.5,0,0,1-4.1-11.74q-2.64-26.21,3.79-41.87,7.35-15.44,24.17-20.05,15.82-4.12,27.16,7.63l0,0q4.08,4.14,6.92,12.5a2.43,2.43,0,0,0-1.37,1.45q-4.56,12-5.58,18.68-2,11.83-1.12,17.31l.08.35q2.28,7.92,7.44,7.84c1.95,0,4.13-1.49,6.54-4.46,0,10.16-.65,16.46-2.07,18.86l-.14.27a25.26,25.26,0,0,1-3,5.5q-8.47,8.49-11.25,12.33a16.87,16.87,0,0,1-1.95.7l-4.77.9-.64.08h0c-.21,0-.42,0-.61,0l-2.75-.1c-.3,0-.53,0-.69-.06h0a3.93,3.93,0,0,1-.47-.09l.07,0c-.6-.18-1.16-.33-1.7-.45a1.48,1.48,0,0,1-.39-.17,2.14,2.14,0,0,0-3,1.34,3,3,0,0,0,1.12,3.62,5.68,5.68,0,0,0,1.29.53l.12,0c.44.09.91.22,1.43.38l.07,0a6,6,0,0,0,.92.18h0a9.68,9.68,0,0,0,1.11.1h0c1.6.05,2.49.08,2.67.1h.07a9.29,9.29,0,0,0,1.05,0h0q.51,0,1-.12h0l2.49-.47a29.18,29.18,0,0,0-1.77,6.77h0a20.82,20.82,0,0,0,1,9.2,3.17,3.17,0,0,0,.25.56l8.19,14.37a2.53,2.53,0,0,0,.44.58,1.91,1.91,0,0,1-.37-.49h0c.2.39.62,1.61,1.29,3.67h0a44.08,44.08,0,0,1,1.87,16,3.88,3.88,0,0,0,0,.69c-3.43.69-6.53,1.24-9.29,1.63q1.29-2.25,3.54-6.58l1.51-7.3c.4-.1-.63-2.63-3.07-7.59a4.44,4.44,0,0,0-1-1.16c-.13-.24-.44-.18-.92.19l-.87-1.06-4.84-8.39c-.31-.28-.59-.29-.83,0A41.36,41.36,0,0,1,419.1,284a21.36,21.36,0,0,1-7.26,3.67q-10,1.58-12.61-2.45c-.26-.62.41-1.39,2-2.31l10.11-5.76a13.4,13.4,0,0,0,2.31-1.62c.78-.66,1-1.11.48-1.35-.09-.27-1.29-.51-3.62-.7-.3-.08-.38-.2-.26-.37l7.94-4.78a4.62,4.62,0,0,0,1.11-.93c.14-.16.1-.26-.12-.32q-3.93.29-4.35-.18c6-3,8.87-5.22,8.67-6.54q-2.19-3.07-6.78-2.5-13.08.23-24.94,13.74-14.17,23.08-11.92,36.33c-1.53-.13-3.09-.28-4.66-.43l.09-.6,0-.24c.07-.94.12-1.54.16-1.8v0c0-.16,0-.27,0-.32h0c.1-.52.19-1,.25-1.44l0,.14,0-.22h0c0-.16.07-.49.12-1l.13-.93V301c.07-.53.13-1.42.18-2.66a2.93,2.93,0,0,0,0-.6q.6-4.61,1.95-12.16c1.63-5.91,3-9.68,4.2-11.31a3.17,3.17,0,0,0,.33-.6q.91-2.31,5.39-7.43a3.28,3.28,0,0,0,.27-.38,1,1,0,0,1-.1.14h0q1-1.2,9.08-6.77l.26-.2a41.46,41.46,0,0,0,3.69-3.64h0a3.51,3.51,0,0,0,.73-1.74,3.33,3.33,0,0,0-.33-2.09,19,19,0,0,0-2.1-7.49l-.14-.24Zm59.71-47.06c.19,1.26.36,2.91.52,5a40.19,40.19,0,0,1-.15,6.24,11.81,11.81,0,0,1-1.05,4.1c-.7,1.41-1.15,2.28-1.35,2.6a40.34,40.34,0,0,0-3.08,4.83,4.59,4.59,0,0,0-.28.58c.2-2.43.58-5.29,1.15-8.64V191A82.55,82.55,0,0,1,446.29,176.35Zm2.8,74.16.07,0h0c.17,0,.87-.08,2.11-.15h.09c1.9-.3,3-.45,3.17-.47h.06l10-1h.05l4.62-.65,6.61-.57h0c5.68-.45,8.89-.67,9.64-.68h5.7l4.85-.16,9.34.05h0q4.38-.09,4.86,0h.07q5.05.28,6.29.4,6.54.67,8.8.79,4.46.38,7.93.91a5.67,5.67,0,0,1-.61.59l-.39,0c-.36,0-.79.07-1.29.13v-.14q.12,0-2.52,0c-4-.22-5.84-.3-5.59-.24l-3.8-.42h-1.62c-5.27-.48-8.58-.73-9.94-.73-.18,0-1,0-2.36,0s-2.36-.15-2.49-.14h-5.21l-2.3.13c-1.26-.05-3,0-5.39.08s-4.06.27-5.19.39A105.51,105.51,0,0,0,473,250.29c.41.63,2,1.12,4.78,1.47l5.67.26c1,0,2.64,0,5,0l3.5.13c.73.1-.1.2-2.49.31a4.28,4.28,0,0,0,1.59.35q1.19.15,10.28.54l1.56.15c.4,0,1.11,0,2.11,0l1.49.24a28.55,28.55,0,0,1,3.1.11c1.14.08,2.46.25,3.94.5a60.53,60.53,0,0,1,6.9.53q4.71.75,6.74,1c-.18.22-.36.43-.55.64-1-.25-2.73-.6-5.1-1.07h0l-.11,0-3.53-.35h-.69l-1.23,0c-1.18-.1-2.93-.18-5.23-.25h0c-.27,0-2.08,0-5.44-.07l-4.23-.12h0l-4.5-.06h-4l-4.22,0h0c-4.91,0-8,0-9.42.09h0c-.44,0-3.63.17-9.59.53h0q-2.26.1-6.09.2h0c-.58,0-1.17.06-1.75.11h0c-2,.23-3.36.36-4.16.41q-1.77.06-7.94.47l-4.67.21h0c-2.64.22-4.27.34-4.89.35h0c-.26,0-.68,0-1.27,0-.8,0-2-.06-3.5-.07l-.38,0a22.25,22.25,0,0,1,2.19-4.22l.14-.23a1.09,1.09,0,0,1,.08-.15l.09-.11c.49-.1,1-.22,1.67-.37Q440.82,251.74,449.09,250.51ZM510.44,244h0Zm10.86,18.58L502.51,261q-12.81-.42-18.72,0-16.08.5-40.77,5.42-1.65.87,4.47,2.21.17.36,19.89,2.17c2.71.34,3.84.61,3.4.81.14.3-.41.65-1.64,1A98.62,98.62,0,0,0,455,276.59q-3.51,1.29-4.05,2.21c-.8.89,1.11,1.77,5.76,2.64q1,.45,13.08,1.11a19.5,19.5,0,0,1,3.52.78c.15.15-.7.54-2.56,1.16a156.25,156.25,0,0,0-15.05,4.25c-.15.6.82,1.23,2.9,1.89.74.36,3.66.65,8.73.87.35.05.5.13.44.26Q456,295,450.5,297.93q-1.28.68,2.06,2.45a27.39,27.39,0,0,0,8.35,1Q452.72,303.47,446,305a50.58,50.58,0,0,0-2.18-17.69h0a40.06,40.06,0,0,0-1.63-4.52h0l-.23-.39-8-14a14.39,14.39,0,0,1-.7-6.09,23.46,23.46,0,0,1,.5-2.55c.54.06.95.09,1.22.1h0c1.52,0,2.68,0,3.46.07h0c.62,0,1.09,0,1.38,0,.68,0,2.34-.13,5-.36l4.65-.21h0q6.17-.4,7.91-.47h0c.84,0,2.26-.19,4.27-.42.55-.05,1.1-.09,1.65-.11q3.84-.11,6.11-.21h0c5.89-.36,9-.54,9.42-.53H479c1.33-.05,4.46-.08,9.37-.09l4.22,0h0c2.09,0,3.42,0,4,0h0l4.49.06,4.23.12h0l5.34.06h0c-.64,0-1-.43-1.06-1.14a1.27,1.27,0,0,0,1.12,1.15c2.29.07,4,.15,5.18.24h.05c.34,0,.8,0,1.36,0h.45l3.46.34c1.36.26,2.48.49,3.37.68Q522.94,260.8,521.3,262.58Zm-11.74-6.3a1.9,1.9,0,0,1,0-.25,2.06,2.06,0,0,0,0,.35S509.56,256.32,509.56,256.28Zm0-.35a1.18,1.18,0,0,1,.81-1A1.33,1.33,0,0,0,509.6,255.93Zm8.13,2h0Zm-91-8.2Zm-63.5,56.43c-1.31-.32-2.59-.65-3.86-1a12.33,12.33,0,0,0,5.09-2.74q1.17-1.16-.09-1.8-2.06-1.55-10.42-5c-1.16-.71-1.73-1.26-1.71-1.66l14.35-1.78q1.56-.25,1.47-1.26a3.86,3.86,0,0,0-1.57-.91q-6.3-2.25-9.1-3.52-4-1.94-3.48-2.12,15.81-3,16-4.69c0-.36-.73-.73-2.1-1.1q-4.68-1.11-10.31-1.91c-1-.2-1.5-.49-1.61-.85l17.16-5.4c1.36-.42,1.91-.77,1.66-1.05q-7.73-.46-46.49,3.56-14.55,2.81-19.92,5.65a63.9,63.9,0,0,1-5.17-5.94l1.77-.33,1.35,0,.21,0a25.15,25.15,0,0,1,4.19-.67l.18,0q2-.53,16-2.94,6.65-.71,13.67-1.87l9.25-1.07,6.7-.53h.09l2.61-.43,6.32-.52h0l12.15-1.3q.89.06,7.06-.3-4.63,5.36-6,8.45-2.28,3.39-4.94,13l-.07.29q-2.4,13.47-2.55,18.29c0,.08,0,.16,0,.24s-.05.29-.08.45v0a.36.36,0,0,1,0,.1c0,.12,0,.3-.07.54v0c-.05.4-.12,1.11-.19,2.12l-.15,1C368.2,306.73,365.73,306.45,363.19,306.14Zm12.33-1.67v0Zm23-48.87a2,2,0,0,0,.86.36,2.19,2.19,0,0,1-1.6-.94A2.17,2.17,0,0,0,398.54,255.6Zm-62.77-78q24.11-29.55,50.25-34.16l.09,0q20.63-4.66,34.67-4.23,26.88,1.94,38.27,8.4a2.3,2.3,0,0,0,.32.15Q488,158,521.52,208.27q3.94,7.15,6.73,13.2h0q8.21,17.75,6.4,24.82c-2.6-.44-5.63-.81-9.11-1.09h0q-2.21-.12-8.73-.8h0q-1.26-.1-6.35-.4h0c-.47,0-2.16,0-5.09,0L496,244h0l-4.85.16-5.66,0h0c-.8,0-4.06.23-9.78.68h0l-6.63.58H469l-4.63.66-9.94,1h0q-.4,0-3.3.48c-1.27.08-2,.14-2.25.17h0q-6.68,1-9.19,1.24,2.89-3.33,8.66-9.1l0,0q1.54-1.63,4-6.95,3-5.37,2.79-23.2v-.12q-2.07-43.64-14.5-56.29-13.05-13.55-31.11-8.82h0a40.62,40.62,0,0,0-27.17,22.74l-.06.14q-7.08,17.2-4.23,45.22l.06.37a55.39,55.39,0,0,0,4.71,13.47l.12.2L395.7,247c.26.53.49,1.05.68,1.56-1.14-.1-2.44-.26-3.95-.48h-.07c-1.69-.12-3.42-.26-5.21-.43h0c-7.15-.43-11.06-.64-11.76-.61-1,0-2.82,0-5.39.12h-.05c-.29,0-2,0-5.08-.16h-.07l-4.41.1h0q-3,0-10.09.62h0q-12.42,1.5-18.16,2.32h0l-5.51.91h-.06l-1.71.37q-2.79.42-6.06,1.09-.89.09-5.66,1.27l-1.44.21-.12,0h.05a19.17,19.17,0,0,0-4.17,1.17l-.13.07-2.19.57-1.18.22Q311,217.15,335.77,177.6Zm71.1,298.51A2.68,2.68,0,0,0,408.2,478,2.33,2.33,0,0,1,406.87,476.11Zm.09-1.59a2,2,0,0,1,1.46-1.61A2.53,2.53,0,0,0,407,474.52Zm4.42,1.23Zm16.82-4.53-19.27,1.57a2,2,0,0,0-.35.07c-1.39,0-6.55-.43-15.51-1.24a2,2,0,0,0-.43,0q-5.11.69-34.34-9.05A100.7,100.7,0,0,0,377,464.84a135.46,135.46,0,0,0,22.87-1.25,62.76,62.76,0,0,0,20.82-6.31q1.5-.45-8.88,0a12.09,12.09,0,0,1-2.7-.45,233,233,0,0,0-54.2-18.6q-2.42-1.22,11.57-.88l32.85,1.24c.44-.24,0-.45-1.19-.64q-17.82-2-17.27-2.22c-1.5-.25-2.1-.69-1.82-1.33s1.52-1.26,4.14-2q17.87-3.51,17.26-3.59c1.17-.42,1.74-.84,1.69-1.27-.28-.5-1.06-.86-2.34-1.1q-9.6-1.31-13.73-2.77-1.47-.09-8-5a8,8,0,0,0-2.53-.8l-2.08-.45q35.52-.74,67.09-3.87-9.52,2.15-14.63,3.6t-5.47,2.07c-.08,1,2.31,1.61,7.18,1.66q4.52.48,38.47-2.14a10.63,10.63,0,0,1,3.83.18q.49.21-2.37,1.26l-24.43,7.94q-1,.57,5.49,1,24.9-.36,24.7.42.45.62-3,2.13l-20.47,7c-1.61.55-2.46,1.11-2.53,1.7s1.12,1,3.65,1a194.38,194.38,0,0,0,20-.76q3.09,0,2.94.66c0,.41-.9,1-2.69,1.68q-26.51,9.56-26.79,10.53-8.37,4.06-4,6.71,2.31,2.09,23.05.77c1.35-.11,2.63-.24,3.86-.38A175.47,175.47,0,0,1,428.2,471.22ZM357,417.64l5.28,0C360.5,417.68,358.74,417.69,357,417.64Zm276.37-96.09q-8.39,31.89-62.36,57-9.11,3.75-18.92,7.06,34.44-15.71,43.66-30.74l-16.92,5.69q13.25-6.41,13.77-9.38c.09-.21-.12-.24-.62-.11a77,77,0,0,1-9.83,2.63c-1.53.27-2.13.16-1.81-.33q20.91-12.48,18.19-12.67c0-.28-.8-.28-2.27,0q-3,1.43-14.51,3.88c-2.37.32-3.66.24-3.87-.21l3-2.35,22.41-13.25q-7.29,4.07-49.69,16.44l-8.3,2.1q-2.17,0-33.11,6.13-12.06,2.61-18.65,4.64c-3.49,1.25-4.47,2.05-3,2.4q-1.89.33,14.83,1.78c1.78.27,2.46.48,2.06.65l-40.37,11a8.74,8.74,0,0,0-4.59,2.9c-.38.22.57.48,2.86.79q11.36,1.18,22.13,1.43c5.56.7,8,1.08,7.33,1.14.54.28.52.58-.05.89a94.84,94.84,0,0,0-11.52,3.8c-.63.22-.25.48,1.13.75q14.58,1.2,21.38.63a19,19,0,0,1,4,.61q1.1.45-17.13,8.15-2.06.45,3.82.5a265.87,265.87,0,0,0,31.23-2.5q-80.89,21.53-201.84,19-16.39-2.76-26.8-1.85l-55.22-8.33q-16.4-3-43.67-13.47l-.12,0q-32.72-10.12-47.5-40.91-10.77-26.19,42.53-57.88Q233.6,272.71,244.94,272h.1l5.05-.54a263.81,263.81,0,0,0-40.44,17.08l-.11.06q-33.67,20.22-26.28,37.9h0a22.81,22.81,0,0,0,5.27,7.45l.21.18q14,10.73,21,12.19l-.07,0q11.33,2.85,27.33,8.6l.29.08,34.65,6.85.15,0,25.3,2.93.2,0q18.17.17,38.56,2.33h.31q11.82-.69,34-.16h.23q24.54-2.46,38.84-2.15h.19q68.5-5.52,125.85-20.94,55-12.79,86.19-36h0a58.35,58.35,0,0,0,8.69-8,30.77,30.77,0,0,1-.81,4.57q-3,11.6-5,14.31-12,17.56-18.2,22.92l19.39-14.23c.39-.23,2.11-1.67,5.14-4.29,1.05-1,2-2,2.93-3l-.36.86A2.84,2.84,0,0,0,633.33,321.55Z" transform="translate(-146.12 -133.69)"/><polygon class="cls-1" points="294.45 19.54 294.45 19.55 294.46 19.56 294.45 19.54"/><polygon class="cls-1" points="255.87 119.96 255.87 119.96 255.87 119.96 255.87 119.96"/><polygon class="cls-1" points="224.94 169.72 224.94 169.72 224.94 169.72 224.94 169.72"/><polygon class="cls-1" points="285.58 85.35 285.58 85.35 285.58 85.35 285.58 85.35"/><path class="cls-1" d="M398.57,172.66h0Z" transform="translate(-146.12 -133.69)"/><path class="cls-1" d="M395.75,184.74c-.19,2.93.73,7.44,2.77,13.57l.05.14q1,2.58,2.13,4.9c.26.61.52,1.23.81,1.85a54.07,54.07,0,0,0,6.61,11.14,23.77,23.77,0,0,0,7.72,6,10.6,10.6,0,0,0,5.26.72,9.39,9.39,0,0,0,2.26-.27,10.11,10.11,0,0,0,8.07-3.52,2.33,2.33,0,0,0,.26-.28q2.43-2.74,2.76-12.66v-.12a49.17,49.17,0,0,0-2.36-15.19l-.05-.16q-4.89-12.48-14.06-18.78l-.13-.08q-6.3-3.69-12-2.66H406q-5.09.57-7.4,3.27C396.46,175.07,395.52,179.11,395.75,184.74Zm32.14,8.41q.53,1.59.9,3.24a4.71,4.71,0,0,0-.52-.56l-1.36-1.46a87.69,87.69,0,0,1-8.14-6.4q-.07.24-3.7-4.74c-1.29-1.55-2.69-4.34-4.19-8.32a17,17,0,0,1,4.9,2Q423.64,182.33,427.89,193.15Z" transform="translate(-146.12 -133.69)"/><path class="cls-1" d="M444,215.53h0Z" transform="translate(-146.12 -133.69)"/><path class="cls-1" d="M437.58,190h0v0Z" transform="translate(-146.12 -133.69)"/><polygon class="cls-1" points="280.89 121.45 280.89 121.45 280.88 121.45 280.88 121.45 280.89 121.45"/><polygon class="cls-1" points="279.75 121.47 279.75 121.47 279.75 121.47 279.75 121.47"/><path class="cls-1" d="M433.49,235.16h-.05l-2.66.75-1.72.39h0c-.56.15-1.47.41-2.71.78l-.17.06.14-.06h0l-1,.2a1.39,1.39,0,0,0-1,1.6,1.24,1.24,0,0,0,1.34,1.19c.62-.11,1-.19,1.16-.23h0l.24-.09-.17.07c1.22-.36,2.1-.61,2.65-.76l1.72-.39h.05l2.69-.76,2.5-.61h.06l.69-.21,2.1-.4a1.4,1.4,0,0,0,1-1.61A1.23,1.23,0,0,0,439,233.9l-2.15.41-.11,0-.71.22Z" transform="translate(-146.12 -133.69)"/><path class="cls-1" d="M432.31,226.35a6.73,6.73,0,0,1-.62-.32,1.11,1.11,0,0,0-1.57.67,1.54,1.54,0,0,0,.56,1.88c.19.11.45.24.76.39h0l2.34,1.08h0a3.16,3.16,0,0,0,.68.21,1.22,1.22,0,0,0,1.36-1.15,1.42,1.42,0,0,0-1-1.63l-.24-.07Z" transform="translate(-146.12 -133.69)"/><polygon class="cls-1" points="293.49 91.52 293.49 91.52 293.49 91.52 293.49 91.52"/><path class="cls-1" d="M441,227.51l.19-.19h0a1.88,1.88,0,0,0,.22-.26l.06-.09c.13-.21.32-.49.57-.82h0l.07-.1.93-1.52a1.61,1.61,0,0,0-.25-2,1.06,1.06,0,0,0-1.65.3l-.9,1.47c-.26.34-.46.64-.62.89h0a1.58,1.58,0,0,0-.27,2A1.06,1.06,0,0,0,441,227.51Zm-.71-3.24Zm-.66.94Z" transform="translate(-146.12 -133.69)"/><polygon class="cls-1" points="303.02 116.81 303.02 116.81 303.02 116.81 303.02 116.81"/><polygon class="cls-1" points="308.39 116.18 308.39 116.18 308.39 116.18 308.39 116.18"/><polygon class="cls-1" points="364.65 121.17 364.65 121.17 364.65 121.17 364.65 121.17"/><polygon class="cls-1" points="371.81 121.41 371.81 121.41 371.82 121.41 371.81 121.41"/><polygon class="cls-1" points="371.75 121.4 371.75 121.4 371.76 121.4 371.75 121.4"/><polygon class="cls-1" points="332.77 123.81 332.77 123.81 332.77 123.81 332.77 123.81"/><polygon class="cls-1" points="229.33 116.13 229.34 116.13 229.33 116.13 229.33 116.13"/><polygon class="cls-1" points="231.66 126.31 231.66 126.31 231.66 126.31 231.66 126.31"/><path class="cls-1" d="M469,207.6q3.6,4.38,7.88,10.74c0,.19-.65.14-2-.17-3.39-.76-6.2-1.45-8.43-2.09-.69-.12-1.08,0-1.19.24q-.56,2.46,12.3,10.21l-12-.29q-.56.49,1.8,1.86L477.42,233q-9.82,2.24-14.8,5.29l6.75.89,58.18.21q-.36-8.94-9.14-27.91-1.1-3.93-16-24.42a199.72,199.72,0,0,0-25.55-24.79l-4.16-2.71-13-3.91q-.37.12.06.75l11.4,15.19q3.09,4.47,3.26,5.46c-.18.83-2.19-.32-6-3.43q-7.8-7.05-9.29-9.27l12.48,23.27c.18.59-.3.46-1.42-.42l-7.92-6.89c-.43-.2-.27.71.48,2.72q1.67,4.24,13.74,21.17c0,.36-.56.24-1.8-.35l-13-6.88c-2.46-1.18-3.55-1.6-3.25-1.27Q459.24,198.09,469,207.6Z" transform="translate(-146.12 -133.69)"/><path class="cls-1" d="M459.06,164.38l-.33-.62A2.23,2.23,0,0,0,459.06,164.38Z" transform="translate(-146.12 -133.69)"/><path class="cls-1" d="M377.27,240.22,361,237.33q5.76-.37,6.6-.84,6-1.62,4.44-2.11l-21-4.83q15.71-3.47,17.26-7.5-.3-.81-14.31-2.25c-3.71-.86-5.34-1.4-4.89-1.64q.42-1.26,15.08-9.46a10.72,10.72,0,0,0,2.82-2.84c.05-.21,0-.31-.09-.31l-1.94-.23H354.58c-1.41-.19-2.17-.59-2.28-1.18-.18-.07.55-1,2.18-2.7l10.77-10.7c1.78-2.08,2.44-3.07,2-3a104.06,104.06,0,0,0-15.55,5q23.58-21.19,22.08-21,1.22-1.33-1.74.24-1.42.45-14.15,7.81c-1.27.67-1.86.81-1.75.4q12.33-14.32,19.85-23.87c1.2-1.69,1.32-2.53.37-2.54q-21.27,7.89-40,33.9-8.49,10.51-16.45,32.43-6.14,16.14-6.33,25.34l56.56-4Q376.28,241.88,377.27,240.22Z" transform="translate(-146.12 -133.69)"/><path class="cls-1" d="M346.88,332.12q7.67-3.6,7.86-4.35c.89-.86.83-1.47-.19-1.83l-39.76-5q-12.82-2.07-13.25-2.8c-.35-.24-.39-.38-.11-.44A114.08,114.08,0,0,0,321.34,314c3.43-.8,5.65-1.86,6.63-3.18q.54-.46-12.76-1.87-10-.35-20.42-1.53-9.44-1.46-12.35-2.17l.49-.83q.52.49,14.81-4.54c1.51-.61,2.35-1.18,2.53-1.7q.18-1.35-3.68-2.43L274,292.8c-.58-.1-.93-.25-1-.47V292a125.62,125.62,0,0,0,19.29-8.8c1.74-1.29,1.45-2-.85-2.17l-8.18.08q-23.58.44-35.75,3.51c-1.57.52-3.06,1-4.52,1.58a72.2,72.2,0,0,0-14.25,2.31q-9.27,2.55-23.21,13.43Q196.19,309,195,313.06q-2.14,4.14,1.44,9.9a28.09,28.09,0,0,0,4.68,6.13q1.25,3.14,10.16,7.14,4.05,2.29,24.76,7,25.39,2.32,30.08,2.07l17.09,2.59c8.38.46,13.61.67,15.72.63q11.93-.37,32.68-1.94,34.1.4,42.1-.24Q403.87,342,408,339.68q-43.83-4.12-60.29-6.68C346.82,332.82,346.55,332.53,346.88,332.12Z" transform="translate(-146.12 -133.69)"/><path class="cls-1" d="M531.13,272.51q-1,.74-.66.87c5.12.54,7.17,1.38,6.14,2.5q-13.4,6.54-12.69,7.47,3.54,1.47,17.84,3.85c1.3.31,1.68.72,1.16,1.21l-30.69,9c-3,1.08-5.1,2.38-6.22,3.89-.67.83-.38,1.48.88,1.93q2.37,1.22,11.07,2.36c1.48.41,2,.84,1.65,1.3q-10,4.59-32.61,10.16c-4.21,1.48-6.5,2.64-6.85,3.48-.62,1.1-.39,1.74.7,1.93l19.51.85q6,1,5.17,2-30,9-37.8,12.8-9.09,3.5-7.47,5.11,11.08,1.15,29.5-1.2,43.28-6.62,52.79-9.77.36,1.37,50.05-18.3a57.09,57.09,0,0,0,18.54-11.86q15.72-17.75-2.84-27.29-5.91-5.13-31.56-11.48-7.41-1.92-39.25-4.86l8.3,10.92Q534.48,270.12,531.13,272.51Z" transform="translate(-146.12 -133.69)"/><path class="cls-1" d="M451.05,369l-12.52.72Q428.38,371,404,372.33l-64.69,2.77-27.75.52q-17-.19-25.41-1.84l13.23,8.46q-14.25.27-14.65.63-6.92,2.06,2.65,3.95-9.93-.06-11.2,1.19l8.05,1.84A117.75,117.75,0,0,1,300,392.48q5.4,1.35,3.8,2.77-18.66,2.61-37.94,4.31c-1.61.26-1.92.55-.92.89l16.66,1.25,32.69,3.2a64.92,64.92,0,0,1,9.08.47q-.27-.19,17.24.28,17.13-.54,19.52-.33,15-1.11,30-.89,9.06-.39,12.48-.75,30.48-3,28.85-7.42-.45-.75-6.11-1.49L398,392.21q-5.84-.65-7.09-1.27l37.58-4.22c3.19-.43,4.94-1.05,5.27-1.84q1-.56-10.14-1.65l-26.84-1.4c-2.74-.27-4-.57-3.7-.91Q447.37,372.88,451.05,369Z" transform="translate(-146.12 -133.69)"/><path class="cls-1" d="M266.48,368.55c.15-.21,0-.39-.55-.56l-6.61-1.69-32-6.3a133.85,133.85,0,0,1-29.12-10.63q-23.29-14.58-24.2-30.92l7.18-13.06q-2.82.45-19.76,17.37a32.67,32.67,0,0,0-6.56,10.42q-1.06,10.81,2.73,16.52.34,2.58,10.09,11.79a225,225,0,0,0,45.58,24.6,85,85,0,0,0,22.42,6.07q10.52.3-6-6.62,15.54,2.86,14.49,1.13l-23.46-12.52q29,6.84,32.82,4-.39-.8-7.22-3.91l-16.72-6.53a10.68,10.68,0,0,1-3.32-2Q264.19,370.64,266.48,368.55Z" transform="translate(-146.12 -133.69)"/><path class="cls-1" d="M406,250.71c.87,1.1,1.12,1,.74-.39q-3.15-12.93-3.57-13.38c.52.52.73.17.65-1.07l-1.16-8c.08-.18.33,0,.74.46q2.94,3.78,3.33,4.13a3.29,3.29,0,0,0,1.24,1q1.53.51-.95-4l5.52,2.64c1.77.51,2.48.37,2.13-.43q-7.19-6.18-9.63-10.1a82.25,82.25,0,0,1-8.14-17.28,70.19,70.19,0,0,1-3.78-19.32,40,40,0,0,1,.13-6.36l.88-9a2.17,2.17,0,0,0-.08-.94q-.54-.88-3.24,8.9.92-6.87-.57-4-.4-.16-1.32,10l-1.12-1.34a56.5,56.5,0,0,0-.94,15.89,26.87,26.87,0,0,0,.6,3.5,72.18,72.18,0,0,1,2.16,7.55l1.8,10.63q.54,2.66,4.16,9.86a66.78,66.78,0,0,0,2.85,7.8Q404.68,249.46,406,250.71Z" transform="translate(-146.12 -133.69)"/></svg>