<svg id="Camada_1" data-name="Camada 1" xmlns="http://www.w3.org/2000/svg" viewBox="0 0 326.25 500.69"><defs><style>.cls-1{fill:#22b573;}</style></defs><title>alien</title><path class="cls-1" d="M483.66,165.61l.08,0h0Z" transform="translate(-232.87 -55.66)"/><polygon class="cls-1" points="264.28 105.25 264.29 105.24 264.29 105.24 264.28 105.25"/><path class="cls-1" d="M523.61,166.64q-8.86-8.67-26.45-5.74a44.45,44.45,0,0,0-13.42,4.67q-5.67,2.73-15.64,13.06l-.11.13a36.39,36.39,0,0,0-8.64,26.7,2.34,2.34,0,0,0,.55,1.33,9.5,9.5,0,0,0,2.25,5.4,12.48,12.48,0,0,0,8.46,3.41l2.3-.1q4.5,1.13,14.57-.08l.18,0a100.33,100.33,0,0,0,23.06-6.82l.22-.11q13.2-7.44,16.7-16,7.07-14.43-4-25.8Zm-15.93,5a5.53,5.53,0,0,1-2.36,2.06,9.22,9.22,0,0,1-5.74,1.05,4.41,4.41,0,0,1-2.61-1.25,3,3,0,0,1-.82-2,6,6,0,0,1,1.91-4.64.25.25,0,0,0,0,.08.46.46,0,0,0,.33,0,27.74,27.74,0,0,1,4-1.4,7.52,7.52,0,0,1,3.34,0,4.06,4.06,0,0,1,2.07,2,5,5,0,0,1,.46,2.44A2.63,2.63,0,0,1,507.68,171.6Zm-18.32-2.5c1.27.35,1.61,2.94,1,7.79a29.9,29.9,0,0,1-12.28,11.72,6.51,6.51,0,0,1-4.61.57,3.71,3.71,0,0,1-.61-.28,3.87,3.87,0,0,1-.23-1,11.14,11.14,0,0,1,.3-3.24c.08-.49.63-2.27,1.67-5.36l0-.13q7.43-7.38,11.56-9.37l.09,0c.54-.29,1.08-.56,1.62-.82A7.21,7.21,0,0,1,489.36,169.1Z" transform="translate(-232.87 -55.66)"/><path class="cls-1" d="M375.91,208.46l.22.11a100.18,100.18,0,0,0,23.06,6.82l.17,0q10.08,1.2,14.57.08l2.31.1a12.52,12.52,0,0,0,8.46-3.41,9.5,9.5,0,0,0,2.25-5.4,2.26,2.26,0,0,0,.54-1.33,36.39,36.39,0,0,0-8.63-26.7l-.12-.13q-9.94-10.32-15.63-13.06a44.45,44.45,0,0,0-13.42-4.67q-17.6-2.93-26.45,5.74l-.05,0q-11.06,11.37-4,25.8Q362.71,201,375.91,208.46Zm12.54-41.63a.46.46,0,0,0,.33,0s0-.06,0-.08a6,6,0,0,1,1.91,4.64,3,3,0,0,1-.83,2,4.36,4.36,0,0,1-2.6,1.25,9.27,9.27,0,0,1-5.75-1.05,5.59,5.59,0,0,1-2.36-2.06,2.62,2.62,0,0,1-.55-1.75,5,5,0,0,1,.45-2.44,4.08,4.08,0,0,1,2.08-2,7.47,7.47,0,0,1,3.33,0A27.41,27.41,0,0,1,388.45,166.83Zm12.09,2.94.09,0q4.13,2,11.55,9.36l0,.14c1,3.09,1.59,4.87,1.67,5.36a11.49,11.49,0,0,1,.3,3.24,4.34,4.34,0,0,1-.23,1,3.81,3.81,0,0,1-.62.28,6.52,6.52,0,0,1-4.61-.57,30,30,0,0,1-12.28-11.72c-.58-4.85-.23-7.44,1-7.79a7.13,7.13,0,0,1,1.43-.15C399.45,169.21,400,169.48,400.54,169.77Z" transform="translate(-232.87 -55.66)"/><path class="cls-1" d="M403.1,165.56h0l.08,0Z" transform="translate(-232.87 -55.66)"/><polygon class="cls-1" points="156.81 105.24 156.81 105.24 156.81 105.25 156.81 105.24"/><path class="cls-1" d="M435.12,279.53l-.54.21-.17.08a27.76,27.76,0,0,0-4.05,2.22h0L428,283.74l-.2.16-1.72,1.52a2.25,2.25,0,0,0-.06,3.4,2.82,2.82,0,0,0,3.73.05l1.62-1.43,2.28-1.63h0a24.42,24.42,0,0,1,3.16-1.7l.35-.14,3-1c.9-.09,1.59-.19,2.07-.29h.16a2.67,2.67,0,0,0,1-.08,2.72,2.72,0,0,0,1,.08h.15c.49.1,1.18.2,2.07.29l3,1,.35.14a24.08,24.08,0,0,1,3.15,1.7h0l2.27,1.63,1.62,1.43a2.83,2.83,0,0,0,3.74-.05,2.26,2.26,0,0,0-.06-3.4l-1.72-1.52-.2-.16L456.48,282h0a27.76,27.76,0,0,0-4.05-2.22l-.18-.08-.53-.21-.17-.06-3.4-1.1a2.63,2.63,0,0,0-.62-.13,14.43,14.43,0,0,1-1.72-.22h.05l-.54-.12a5.22,5.22,0,0,0-.58,0h0c-.26,0-.56,0-.9.05a3,3,0,0,0-.43.09l-.42-.09c-.35,0-.65-.05-.91-.05h0a5.17,5.17,0,0,0-.57,0L441,278h0a14.4,14.4,0,0,1-1.73.22,2.55,2.55,0,0,0-.61.13l-3.4,1.1Zm7.36,3.11Zm1.88,0Z" transform="translate(-232.87 -55.66)"/><path class="cls-1" d="M450.81,289h-.21l-.27,0h-.9l-.47,0h-.25l-1.64-.07h0l-.62,0h-.58c-.19,0-.37,0-.55,0l-1.71.13-.21,0a1.38,1.38,0,0,0-.2,0l-1.71-.13c-.18,0-.36,0-.55,0h-.58l-.62,0h0l-1.64.07h-.26l-.46,0h-.91l-.27,0H436a2.59,2.59,0,0,0-2.83,2.23,2.5,2.5,0,0,0,2.45,2.57h1l.24,0h.17l.62,0h.68l1.64-.06h0q.33,0,.63,0h.41l1.71.13a7.06,7.06,0,0,1,1.3,0l1.71-.13h.42q.3,0,.63,0h0l1.64.06h.68l.62,0H450l.25,0h1a2.49,2.49,0,0,0,2.45-2.57A2.57,2.57,0,0,0,450.81,289Z" transform="translate(-232.87 -55.66)"/><polygon class="cls-1" points="216.3 238.14 216.29 238.14 216.29 238.14 216.3 238.14"/><polygon class="cls-1" points="212.46 233.25 212.46 233.25 212.47 233.25 212.46 233.25"/><polygon class="cls-1" points="204.81 238.14 204.8 238.14 204.8 238.14 204.81 238.14"/><polygon class="cls-1" points="208.63 233.25 208.63 233.25 208.63 233.25 208.63 233.25"/><path class="cls-1" d="M449.78,252.28a2.81,2.81,0,0,0,3.68-.61,29,29,0,0,1,2.81-3.39l.1-.1a4.48,4.48,0,0,1,.42-.36c1.27-.92,2.18-1.6,2.72-2a2.26,2.26,0,0,0,.31-3.39,2.82,2.82,0,0,0-3.73-.28c-.5.39-1.39,1-2.65,2l-.07.05a10.39,10.39,0,0,0-.81.7,32.58,32.58,0,0,0-3.45,4.09A2.27,2.27,0,0,0,449.78,252.28Z" transform="translate(-232.87 -55.66)"/><path class="cls-1" d="M452.54,244.87l0,0,.09-.08Z" transform="translate(-232.87 -55.66)"/><path class="cls-1" d="M434.2,244.77l.08.08,0,0Z" transform="translate(-232.87 -55.66)"/><path class="cls-1" d="M427,242.42a2.26,2.26,0,0,0,.3,3.39c.55.41,1.46,1.09,2.73,2a4.4,4.4,0,0,1,.41.36l.11.1a29,29,0,0,1,2.81,3.39,2.8,2.8,0,0,0,3.67.61,2.28,2.28,0,0,0,.68-3.34,31.54,31.54,0,0,0-3.46-4.09,10.27,10.27,0,0,0-.8-.7l-.07-.05c-1.27-.92-2.15-1.57-2.66-2A2.81,2.81,0,0,0,427,242.42Z" transform="translate(-232.87 -55.66)"/><path class="cls-1" d="M522.35,205.76q-7.35,6.17-11,8.06a63.12,63.12,0,0,1-10.71,4.74q-9.06,2.91-17.07,4.67a50.26,50.26,0,0,1-8.45.76l-6,1.88,3.52,1a65.67,65.67,0,0,0,9.15,1.06,29.68,29.68,0,0,1,4.44-.22l7.4-1a56.06,56.06,0,0,0,7.78-1.87,52.29,52.29,0,0,0,14-8.7q9-8,8.51-11A3.23,3.23,0,0,0,522.35,205.76Z" transform="translate(-232.87 -55.66)"/><path class="cls-1" d="M400.66,227.71a29.68,29.68,0,0,1,4.44.22,65.67,65.67,0,0,0,9.15-1.06l3.52-1-6-1.88a50.15,50.15,0,0,1-8.45-.76q-8-1.75-17.07-4.67a63.12,63.12,0,0,1-10.71-4.74q-3.67-1.89-11-8.06a3.23,3.23,0,0,0-1.52-.68q-.47,3.09,8.51,11a52.13,52.13,0,0,0,14,8.7,55.71,55.71,0,0,0,7.78,1.87Z" transform="translate(-232.87 -55.66)"/><path class="cls-1" d="M472.27,163.82q2.7-3.66,12.55-9.29,1.05-1.31,15.1-5.68a63.64,63.64,0,0,1,9.72-1.27,71.93,71.93,0,0,1,13,.14,7.47,7.47,0,0,0,2.63-.35q0-1.25-8.6-2.78-1.14-.66-11.6-.48-17.76,1.47-30.22,11.79Q458.93,169,453.88,182.69l2.33-.21Q454.83,181.88,472.27,163.82Z" transform="translate(-232.87 -55.66)"/><path class="cls-1" d="M377.21,147.58a63.35,63.35,0,0,1,9.71,1.27Q401,153.23,402,154.53q9.84,5.63,12.55,9.29,17.43,18.06,16.06,18.66l2.32.21q-5-13.65-20.91-26.79-12.46-10.32-30.23-11.79-10.45-.18-11.59.48-8.62,1.53-8.6,2.78a7.39,7.39,0,0,0,2.63.35A71.93,71.93,0,0,1,377.21,147.58Z" transform="translate(-232.87 -55.66)"/><path class="cls-1" d="M441.33,398.87l.09,0,.24-.06h0v0h0l-.13,0-.18.05h0Z" transform="translate(-232.87 -55.66)"/><path class="cls-1" d="M559.05,487.16h0a3,3,0,0,0-.77-1.44q-.13-3.25-1.19-10.72l-.29-1.54v-.17c0-1.05,0-2.2,0-3.45v-.25q-.17-2.58-.12-3.66a2.88,2.88,0,0,0,0-.41c-.1-.89-.15-1.43-.16-1.64h0l0-2.46v-.12l-.05-1.52c0-2.08,0-3.51,0-4.3l0-1.13v-.28l-.24-3v.07a39.87,39.87,0,0,0-1.32-6.72l0-.15c-.6-1.88-1-3-1.11-3.35v-.05h0v0q-2.16-5.1-2.37-5.92h0a2.36,2.36,0,0,1,0,.31h0a3,3,0,0,0-1.8-2.43q-4.24-7-13.14-14.26-7.18-4.55-11.11-5.64-23.62-2.62-31.59-6.35a38.66,38.66,0,0,1-16-14.28q-7.47-11.62-8.95-32.82-.5-15.18.36-18.57l5.56-18.58a64.09,64.09,0,0,0,24.72-17.61l.18-.23,8.94-13.24a2.19,2.19,0,0,0,.25-.48L514.46,276l.07-.19,1.94-6.91a2.14,2.14,0,0,0,.08-.44q1.22-16.62,2.22-18.83a2.13,2.13,0,0,0,.19-.71c.09-.89,1-3.31,2.85-7.28l0-.06a21.4,21.4,0,0,1,3-5.24q13-13.49,19.66-25.43l-.07.12q7.3-11.4,8.89-26.87a1.7,1.7,0,0,0,0-.45l-2.75-26.23a2.19,2.19,0,0,0-.14-.56c-.15-1.23.53-5.44,2.07-12.65a2.21,2.21,0,0,0,0-.37q.86-19.55-.15-22.57h0c0-.1-.08-.18-.12-.27q.06-9.42-14.33-28.84l.06.08q-26.67-38.88-94.56-36.51-67.87-2.37-94.55,36.51l.05-.08q-14.4,19.43-14.33,28.84c0,.09-.08.17-.11.27h0q-1,3-.16,22.57a2.2,2.2,0,0,0,.05.37q2.29,10.81,2.06,12.65a2.19,2.19,0,0,0-.14.56l-2.75,26.23a3.38,3.38,0,0,0,0,.45q1.59,15.47,8.9,26.87l-.08-.12Q349,222.85,362,236.34a21.4,21.4,0,0,1,3,5.24l0,.06c1.81,4,2.76,6.39,2.85,7.28a2.13,2.13,0,0,0,.19.71q1,2.2,2.22,18.83a2.14,2.14,0,0,0,.08.44l1.94,6.91.06.19L378,290.68a2.16,2.16,0,0,0,.24.48l8.94,13.24.18.23a64.06,64.06,0,0,0,24.78,17.63l5.51,18.56a115.85,115.85,0,0,1,.17,21.94,73.09,73.09,0,0,1-8.37,28.94q-7,10.49-16.36,14.79a117.09,117.09,0,0,1-30.71,6.14,41.88,41.88,0,0,0-12.86,6.45q-8.69,5.82-15.58,20.62c-.24.64-.45,1.23-.63,1.79-.73,1.59-1.42,3.23-2.06,4.95a16.13,16.13,0,0,0-.8,5.29c.22,2.18.44,4,.65,5.39L331,458h0v.07h0c0,.31,0,1.1,0,2.38h0l-.14,2.35v.13c-.05,3.59-.1,5.59-.13,6h0v.12q0,.56-.21,3.09h0c-.28,2.41-.44,3.92-.47,4.52-.54-1.07-1.1-2.16-1.69-3.28l-6.9-16.95-.12-.26q-1.28-2.39-5.71-17.73l-.07-.2-2.6-7q20.24-42.84,3.95-53.51a24.24,24.24,0,0,0-10.06-4.41l-.51-3.54.62-28.16q3.75-23.22,5.95-32.16l.06-.28a68.09,68.09,0,0,0,.86-8.28h0a4.52,4.52,0,0,0-.09-.67h0v0a.17.17,0,0,0,0-.07q-2-10.5-5.47-14.24-3.1-4.4-9.71-5.71a3.73,3.73,0,0,0-1-.05q-13.72,1.18-18.44,16.91l0,.11q-1.12,4.46-.48,13.47v0q2.6,29.71,3.32,32.46h0v0q.36,7.15.28,8.13v0a15.24,15.24,0,0,1-.43,2.58L275,322.62l-.05-.19q-3.57-12.18-9.11-19.78c-.09-.12-.19-.23-.29-.34q-6.74-6.82-12.34-9.33h0q-11.82-5.3-18.18,6.3-4.32,5.87.22,21.83l.07.21A97.89,97.89,0,0,0,248,344.72q6.78,20.76,7.83,25.39-14.42,4-17.12,16a18.36,18.36,0,0,0,.46,10.74q4.05,11,8.29,16.63l-.1-.14q5.49,8.19,11,11.69a16.85,16.85,0,0,0,.67,2,50.89,50.89,0,0,0,5,9.81,21.43,21.43,0,0,0,7,6.32l-.12-.08A30.25,30.25,0,0,0,282.9,448l2,11.69q9.78,50.47,16.11,65.14Q307,540,314,548q6.72,8.12,15.9,8.34,12,0,21.17-15.44Q358.67,529,371.58,497c2.16.4,5,.84,8.48,1.31l.18,0,10,.84h.11q17.57.94,19,1.12l.18,0q1,.07,3.3.12h1.33c2.52,0,4.81,0,6.85.08h0l7.88.29h1.41q3.38,0,8,.11h.17c2.81-.07,4.75-.1,5.82-.1h.89c1,0,3.63.11,7.9.31h.09l1.64,0c.68,0,1.36,0,2,0h.09q7.71-.47,13-.5l.34,0q3.69-.37,13.45-.79h.12l7.14-.55h0q6.12-.12,7.47-.26h0l24.74-2.55.12,0,21.65-2.93,7,0a8.48,8.48,0,0,0,2.43-.48,11.24,11.24,0,0,0,2.92-2.4C558.73,489.8,559.36,488.65,559.05,487.16Zm-8.68-330.32a1.66,1.66,0,0,0-.16-.33A1.23,1.23,0,0,1,550.37,156.84Zm-2.25-33.21a2,2,0,0,1-.71-.7A2.63,2.63,0,0,0,548.12,123.63ZM336.47,156.84a2.45,2.45,0,0,1,.16-.33C336.57,156.62,336.52,156.73,336.47,156.84Zm3-33.91a2,2,0,0,1-.72.7A2.53,2.53,0,0,0,339.44,122.93Zm52.1,178.81-8.69-12.88-5.44-14.34-1.85-6.6q-1.21-16.37-2.47-19.8a42.58,42.58,0,0,0-3.17-8.32l0,.06c-.22-.52-.45-1-.68-1.49l7.88,9.49,5.28,5.39a48.28,48.28,0,0,1,5.62,9.35l-1-8.3a52,52,0,0,0-8.48-16.85q-7.57-9-12.26-13.55-2.88-3.36-7-8.61-1.73-1.24-9.54-16.36a15.06,15.06,0,0,0-.19,5q-.28,6.25,10.1,22.42a106.74,106.74,0,0,1-12.65-17.58l-.08-.13q-6.66-10.41-8.17-24.69l2.28-21.76.52,10.1a72.46,72.46,0,0,0,1.51,10.25,25.31,25.31,0,0,0,3.95,9.79l-.93-5.91q-2-9.12-.55-22.16-.56-1.48,5.77-21c.16-.8,1.16-2.71,3-5.73q6.94-7.32,14.82-20.18,5.67-9,5.28-10.92l-6,7.06q-14.79,14.49-17.69,18.48-5.9,7.78-7.25,12.79c-.94,3.62-1.62,6.76-2.06,9.45-.3-2.47-.94-6-1.92-10.62q-.78-18.18-.08-20.69a2.25,2.25,0,0,0,.37-1.35q-.54-7.76,13.42-26.58l.05-.07q24.87-36.26,89-34.27a2.47,2.47,0,0,0,.61,0l.5,0,.51,0a2.39,2.39,0,0,0,.6,0q64.1-2,89,34.27l.06.07q14,18.82,13.42,26.58a2.25,2.25,0,0,0,.37,1.35q.7,2.52-.09,20.7-1.47,6.92-1.91,10.61c-.44-2.69-1.12-5.83-2.06-9.45q-1.35-5-7.25-12.79-2.91-4-17.69-18.48l-6-7.06q-.39,1.91,5.28,10.92,7.88,12.85,14.82,20.18,2.77,4.53,3,5.73,6.31,19.55,5.77,21,1.41,13-.56,22.16l-.92,5.91a25.31,25.31,0,0,0,4-9.79,72.46,72.46,0,0,0,1.51-10.25l.52-10.1L548,183.92q-1.51,14.28-8.18,24.69l-.07.13a106.25,106.25,0,0,1-12.66,17.58q10.38-16.15,10.1-22.42a14.53,14.53,0,0,0-.19-5q-7.82,15.12-9.53,16.36-4.1,5.25-7,8.61-4.68,4.59-12.27,13.55a52.24,52.24,0,0,0-8.48,16.85l-1,8.3a48.69,48.69,0,0,1,5.61-9.35l5.28-5.39,7.89-9.49c-.23.48-.46,1-.68,1.49l0-.06a42.58,42.58,0,0,0-3.17,8.32q-1.26,3.45-2.47,19.8l-1.86,6.6L504,288.86l-8.69,12.88a62.19,62.19,0,0,1-5.16,5.23,53.49,53.49,0,0,0,4.93-9.14q1.73-3.21,1.64-12.31-7,11.64-8.57,12.58-2.89,3.18-10.75,10.37l-2.48,2.81Q471.14,317,470,318c-.39.45-.81.88-1.25,1.31a85.09,85.09,0,0,1-50.61,0c-.44-.43-.86-.86-1.25-1.31q-1.15-1-4.94-6.67l-2.48-2.81q-7.86-7.19-10.75-10.37-1.57-.94-8.58-12.58-.08,9.11,1.65,12.31A52.8,52.8,0,0,0,396.7,307,60.7,60.7,0,0,1,391.54,301.74Zm-84.22-.24,0,.12Zm-25.13,54.3ZM253,410.23l-.09-.13q-3.72-4.92-7.48-15.17v0a13.09,13.09,0,0,1-.24-7.61h0q2.06-9.14,14.18-11.89a3.09,3.09,0,0,0,2.41-2.34,2.79,2.79,0,0,0,.85-2c0-.12,0-.24,0-.38q-.26-3.18-8.4-28.1a2.64,2.64,0,0,0-.41-.8A92.53,92.53,0,0,1,241.5,319.5q-3.84-13.51-1.05-17a3.11,3.11,0,0,0,.3-.44q3.48-6.45,9.53-3.75h0q4.4,2,10.18,7.8,4.85,6.74,8.11,17.78l7.15,33,.09.32a7,7,0,0,0,.89,1.77h0a5.21,5.21,0,0,0,5.9,2.11h0l.3-.08.17-.05q4.86-1.62,5.6-9.09c0-.05,0-.1,0-.15h0c.08-.9,0-4-.28-9.21a3,3,0,0,0-.18-.83q-.62-2.55-3.15-31.46-.57-8.08.32-11.68,3.42-11.38,12.22-12.43a8.17,8.17,0,0,1,5.22,3.13,2.72,2.72,0,0,0,.34.42q2.35,2.44,4.09,11.57c0,.78-.26,3.12-.8,7.07q-2.25,9.23-6,32.63a2.22,2.22,0,0,0,0,.37l-.63,28.57a3.4,3.4,0,0,0,0,.45l.35,2.41A53.91,53.91,0,0,0,286.33,375,112.29,112.29,0,0,0,264,382l-.06,0q-8,3.87-9.32,7.51a4.78,4.78,0,0,0-.06,3.33,3.16,3.16,0,0,0,.45.8q4,5.14,15.7,7a7,7,0,0,0,.88.26h0a19.1,19.1,0,0,0,3.34.16A26.11,26.11,0,0,1,276,404.4a24.65,24.65,0,0,0-3.59-1.92,8.66,8.66,0,0,0-2.59-.78,17,17,0,0,0-5.44.2c-.4.15-.55.29-.48.41s.43.42,1.42,1c.12.11.1.23,0,.35l-6.55,1.56q8.56,2.78,8.79,2.67a7.76,7.76,0,0,1,1.92,1c2.95,3,4.36,4.52,4.25,4.56a12.35,12.35,0,0,1,1.12,2.36,11.28,11.28,0,0,1-4.76,5,7.26,7.26,0,0,1-6.31,0,3.39,3.39,0,0,0-1.87-1Q257.65,417.19,253,410.23Zm35.14-68.79,0,.08Zm-15.18,53.62Zm.43.16.06,0Zm69.1,147.27q-7.9,10.35-17.16,6.92-4.56-1.9-10.77-11.33-3-4.14-9-19.23-6.48-18.08-16.14-70.64c1.05-.14,2.17-.34,3.38-.62a21.5,21.5,0,0,1,3.19,4.24,41.06,41.06,0,0,1,2.12,4.84c0-.1.57,1.64,1.66,5.22l2.62,7,1.12,2.57c.06.1.12.1.19,0s.19-1.06.07-3.07l-.61-8.66L301.43,450q-.14-.68-.36-1.41a13.81,13.81,0,0,0-4.21-6.18,3.32,3.32,0,0,0-2.38-1.21c-.13,0-.26-.09-.39-.12l-.07.12a3.17,3.17,0,0,0-.74.12q-5.76,1.6-7.71,1.07a4.86,4.86,0,0,0-.55-.11,23,23,0,0,1-10.18-4l-.12-.08a15.07,15.07,0,0,1-5.07-4.47l-.14-.2a33.34,33.34,0,0,1-3.15-5.88,14.51,14.51,0,0,0,6.78-1.59l0,0q6.65-3.37,9.29-12l.06-.19a24.08,24.08,0,0,0,.47-3.16c.37.21.75,0,1.12-.55a34.39,34.39,0,0,0,2.44-5.81c.13-.32.27-.51.43-.55s.34,0,.42.07c1.16,1.89,1.91,2.77,2.25,2.67a1,1,0,0,0,.65,0l2.24-.74a1.5,1.5,0,0,1,.82.09,1.64,1.64,0,0,1,.76.78l2.2,4.38c.33.71.42,2.53.29,5.47,0,.25.09.36.21.31.69-.74,1.35-3.76,2-9.08l.56-8.68a10.83,10.83,0,0,0-.45-2.48,3.19,3.19,0,0,0-1.78-2.55,10.73,10.73,0,0,0-2-.32,3.54,3.54,0,0,0-1.9-.29q-17.2,2.1-20.12,1.69a3.38,3.38,0,0,0-.89-.26Q264,393.62,261,391c.73-.92,2.69-2.15,5.9-3.72q7.9-3.66,21-6.56l.2-.05q16.34-4.62,24.6,1.71l.22.15q12.31,7.89-6.42,47.17a2.71,2.71,0,0,0-.14,2,2.62,2.62,0,0,0,.17,1.09l2.72,7.3q4.45,15.39,6,18.53l6.93,17,.12.26a111.1,111.1,0,0,1,6.77,15.06h0q2.69,7.71,2.79,9.63a2.89,2.89,0,0,0,1,2c.31,1.5.65,3,1.05,4.38.22,1.12.52,3.58.88,7.36l.59,3.64c.82-.13,1.64-1.31,2.48-3.55a25.86,25.86,0,0,0,1.32-8.29,23.12,23.12,0,0,0-.13-3.13c0-1.15,0-1.77,0-1.85,0,.12.06-1.1.32-3.68l.08-2.62-.31-3.31a23.23,23.23,0,0,1,0-3.35l-.07-2.34c0-1.07.11-2.39.26-4q.14-4.1.12-6.66a19.36,19.36,0,0,0-.4-2.7l.29-3a37,37,0,0,1,.95-3.93q-1-5,.19-17.88c0-.28.06-.56.1-.84l0-.28A117.1,117.1,0,0,1,345.75,436a30.93,30.93,0,0,1,4.2-5.5l2.12-1.88,3.88-2.29c.2-.31-1.08-.42-3.83-.31l-2.2.53.17-.23c.77-.92,1.86-2.06,3.25-3.42a21.89,21.89,0,0,1,5.15-3.21l-.25-.09h-.07a28.34,28.34,0,0,1,5.52-2.27l4.53-1.13q10.59-.56,12.58-1.12a73.7,73.7,0,0,0,14.87-4.39,57.14,57.14,0,0,0,9.25-6.1,67,67,0,0,1,10.14-12.05,48.34,48.34,0,0,0,5.38-14.22q3.1-16.45,3.05-27c-.17-6.64-.44-10.62-.82-12l-4.53-14.9c1.25.38,2.53.73,3.83,1.05a28.28,28.28,0,0,1,5.23,6.73,10,10,0,0,1,.73,1.91c.31,1.11.46,1.7.46,1.79a29.25,29.25,0,0,0,.59,3.34,33,33,0,0,0,1.06,3.37c1.69,4.09,2.9,6.26,3.64,6.54.58,0,.81-.8.71-2.47,0-.21,0-.92-.13-2.14a25.91,25.91,0,0,1-.59-4.73,8.68,8.68,0,0,1,.5-1.67,11.44,11.44,0,0,0,1.13-2.7c.27-1.28.49-2.72.66-4.3a6.78,6.78,0,0,0-.74-3.54c1.51.13,3,.23,4.6.29a2.71,2.71,0,0,0,.58.07c1,0,2,0,3,0s2,0,3,0a2.79,2.79,0,0,0,.58-.07c1.55-.06,3.09-.16,4.6-.29a6.78,6.78,0,0,0-.75,3.54c.18,1.58.4,3,.66,4.3a12,12,0,0,0,1.14,2.7,9.54,9.54,0,0,1,.5,1.67,26.82,26.82,0,0,1-.59,4.73c-.11,1.22-.15,1.93-.14,2.14-.1,1.67.14,2.5.72,2.47.74-.28,1.95-2.45,3.64-6.54a33,33,0,0,0,1.06-3.37,27.78,27.78,0,0,0,.58-3.34c0-.09.16-.68.47-1.79a10,10,0,0,1,.72-1.91,28.55,28.55,0,0,1,5.23-6.73c1.31-.32,2.59-.67,3.86-1.05l-4.59,15.26a85.81,85.81,0,0,0-.8,12.26q-.31,23.24,9,41.12a67.68,67.68,0,0,1,9.53,11.44,72.61,72.61,0,0,0,9.3,6.19,73.59,73.59,0,0,0,14.9,4.39,103.55,103.55,0,0,0,12.56,1.12l4.53,1.12a38.42,38.42,0,0,1,10.12,5,34.88,34.88,0,0,1,5.63,4.88l-1-.39-3.2-.77c-2.75-.11-4,0-3.82.31l3.87,2.29,2.13,1.88a30.5,30.5,0,0,1,4.19,5.5,112,112,0,0,1,5.09,10.59c0,.23.06.46.1.7.12,1.06.21,2.16.28,3.31a87.1,87.1,0,0,1,.32,11.3,33.23,33.23,0,0,1-1.72,9.62c0,.15-.11.31-.17.46-.13.34-.27.68-.42,1-.05.1-.09.21-.14.31-.2.44-.42.86-.64,1.29l-.08.13c-.6,1-1.11,1.81-1.53,2.44-.13.19-.26.38-.4.56L540.69,479l-3.48,3.7a35.17,35.17,0,0,1-3.1,2.81c-3.61,2.82-8.31,4.47-14.05,5,0-.31-.09-.61-.15-.93a53.5,53.5,0,0,0-1.88-7,62.47,62.47,0,0,1-1.29-6.85l-.62-12.11c0-.39-.1-.61-.28-.67l-2.77,3.21c-2.05,1.79-3.6,3.19-4.67,4.2.07-.13-.59.7-1.95,2.49a29.25,29.25,0,0,0-2.23,3.9q-2,5.63-2.51,6.19l-2.44,3.53q-.4.83,8.75-1.64a4.75,4.75,0,0,1,2.53,0c.42.34.36.88-.18,1.61L508,488.57a1,1,0,0,0-.3.49.79.79,0,0,0,0,.37c.33.62.57,1.15.77,1.62l-7.68.32h0l-13.35.55-11.74-.42a7.89,7.89,0,0,1-2.18.44l-2.19,0c-1.75.13-3.14.21-4.16.22H450l-2.4,0c-2.46-.14-4-.2-4.55-.2H422a7.49,7.49,0,0,1-1.07-.07h0a7.76,7.76,0,0,1-1-.19,10.65,10.65,0,0,1-1.23-.46l-19.39.7-19.32-.8h0l-1.71-.07c.2-.46.45-1,.78-1.62a.67.67,0,0,0,0-.37.87.87,0,0,0-.29-.49l-2.34-2.07c-.54-.73-.61-1.27-.19-1.61a4.79,4.79,0,0,1,2.54,0q9.15,2.46,8.75,1.64L385.13,483q-.53-.57-2.51-6.19a28,28,0,0,0-2.22-3.9c-1.37-1.79-2-2.62-2-2.49q-1.59-1.51-4.66-4.2L371,463c-.18.06-.28.28-.28.67l-.62,12.11a65.2,65.2,0,0,1-1.29,6.85,52.43,52.43,0,0,0-1.89,7c-.05.33-.1.64-.15.95l-.65-.05-.94-.12-.56-.07c-.5-.07-1-.15-1.47-.25v0a37.58,37.58,0,0,1-4.75-1.4l.24.9q1.38,5.24,3.12,12.13l0,.52c0,.44,0,.91,0,1.39Q349.34,533.68,342.45,542.49Z" transform="translate(-232.87 -55.66)"/><path class="cls-1" d="M259.07,427h0v0Z" transform="translate(-232.87 -55.66)"/><path class="cls-1" d="M239.2,396.84h0v0Z" transform="translate(-232.87 -55.66)"/><polygon class="cls-1" points="5.86 330.44 5.86 330.44 5.86 330.44 5.86 330.44"/><polygon class="cls-1" points="29.69 315.07 29.69 315.07 29.69 315.07 29.69 315.07"/><path class="cls-1" d="M288.67,351.89v0s0,0,0,.07Z" transform="translate(-232.87 -55.66)"/><polygon class="cls-1" points="293.58 394.48 293.58 394.48 293.58 394.48 293.58 394.48"/><path class="cls-1" d="M526.46,450.13h0v0h.07l.28,0,.28,0a3.44,3.44,0,0,1-.64-.12Z" transform="translate(-232.87 -55.66)"/><polygon class="cls-1" points="293.58 394.48 293.58 394.48 293.58 394.48 293.58 394.48"/><polygon class="cls-1" points="293.58 394.48 293.58 394.48 293.58 394.48 293.58 394.48 293.58 394.48 293.58 394.48 293.58 394.48"/><path class="cls-1" d="M339.12,501.08h0Z" transform="translate(-232.87 -55.66)"/><path class="cls-1" d="M354.21,491.74q-2.28-3.45-2.92-2.64a1.2,1.2,0,0,0-.24.67,82.87,82.87,0,0,1-.81,13.73c-.35,3.39-.73,5.45-1.11,6.18-.64,1.24-1.34,1.32-2.1.23-.1.35-.9-1.86-2.39-6.65-.35-.89-.57-1.16-.65-.83l-1.25,15c-.08,1,0,3.79.16,8.48a14,14,0,0,1-.15,2.77q-.12,3.32-5.53,12.6l-3.37,4.21a11.42,11.42,0,0,0,3.77-1.47,24.09,24.09,0,0,0,6.24-6.11,104.28,104.28,0,0,0,5.54-11.1,99.08,99.08,0,0,1,5-11.55,57.18,57.18,0,0,0,2.14-5.64,17.47,17.47,0,0,0,.68-4.81c0-4.36-.2-6.8-.55-7.3A17,17,0,0,0,354.21,491.74Z" transform="translate(-232.87 -55.66)"/><path class="cls-1" d="M323.23,537q-.63-.45-2.72-10.47l-4-7.84-7.45-17.21q-2.68-7.16-6.21-20.29c-.68-2-1.3-3.27-1.88-3.75q-1,.29-.9,9.88.59,11.06,2.23,16.23a55.76,55.76,0,0,0,2,5.81q.26,1,6.07,12.07l5.18,12.37q2.4,5.21,4.15,7l8.29,2.39Q325,541.77,323.23,537Z" transform="translate(-232.87 -55.66)"/><path class="cls-1" d="M329.91,543.72l-1.91-.56A6,6,0,0,0,329.91,543.72Z" transform="translate(-232.87 -55.66)"/><path class="cls-1" d="M306.31,461.22a68.45,68.45,0,0,0,2.91,6.73c.29.49.51.14.66-1l.11-1.64q-.11-1.77-.12-2.76c-.14-1.23-.33-2.52-.59-3.86,0,0-.14-.71-.49-2.16l-2.3-8.62a30.74,30.74,0,0,0-2.06-5,19,19,0,0,0-1.89-2.91l-1.17-2L301,441.7a33.94,33.94,0,0,0,1.05,5.54l1.88,6.76Z" transform="translate(-232.87 -55.66)"/><path class="cls-1" d="M286.24,386.48a6.86,6.86,0,0,0-1.1.12c-.1,0-.86.21-2.29.61a5.63,5.63,0,0,1-.91.13,5.43,5.43,0,0,1-1,0l-3.05-.18a3.61,3.61,0,0,0-1.16.16c-.32,0-.81.57-1.48,1.63a3.35,3.35,0,0,1-1.15.62,5.22,5.22,0,0,1-1.14.31q-.86.15-4.11.39a1.84,1.84,0,0,0-.73.27c-.48.31-.14,1,1,2q2,1.86,7.58,1.43a68.34,68.34,0,0,0,6.94-.9l8-1.67,4.52-.17a21.06,21.06,0,0,0-4.75-3.17A13.42,13.42,0,0,0,286.24,386.48Z" transform="translate(-232.87 -55.66)"/><path class="cls-1" d="M268.69,364.83q1.35-6.75-1.58-16.78a37.86,37.86,0,0,0-2.48-5.46l-1.95-5.43a23.16,23.16,0,0,0-3.13-4.36c-.24-.35-.26-1.84,0-4.48a4.53,4.53,0,0,0-.28-1.62q-.08-.76-3.12-3.86c-.74-1-1.08-1.73-1-2.11a10.81,10.81,0,0,1,.44-3.91,21.15,21.15,0,0,0-.15-3.23,1.45,1.45,0,0,1,.19-.74q2.92-3.12,5.49-2.1c.38-.17.42-.6.14-1.28q-2.2-3.78-9.15-7.22-6.21-1.41-8.85.16l-1.09,3.4a100.13,100.13,0,0,0,2.44,13.12,42.12,42.12,0,0,0,2.2,6.75q5.34,10.47,7.59,13.18a14.94,14.94,0,0,0,5.51,4.44,4.7,4.7,0,0,1,1,1.32,3.36,3.36,0,0,1,.39,1.08,32.63,32.63,0,0,0,.66,5.24,90.33,90.33,0,0,0,3.32,11.55Q267.81,369.27,268.69,364.83Z" transform="translate(-232.87 -55.66)"/><path class="cls-1" d="M292.79,299.81c2.38-1.61,4-1.5,4.74.33a4.72,4.72,0,0,1,.25,2.69L296.29,308a5.58,5.58,0,0,0-.16,1.81c.12.63.31,1,.55,1.12l2.15.87a1.37,1.37,0,0,1,.24,1,3.8,3.8,0,0,1-.37,1.29c-1.5,3.06-2.21,4.59-2.16,4.6a6.11,6.11,0,0,0-.49,2.51,4.24,4.24,0,0,0,.16,1,26.09,26.09,0,0,1,1.58,5.32L298,329l.32,6.85c.32,1.85.67,2.9,1.06,3.14.22,0,.49-1.18.79-3.54l.32-7.82q1.57-6.48,1.23-7.72a18.51,18.51,0,0,1,2.09-5.48l.86-4.37c0-.08.07-1.21.27-3.4.67-2.51.93-4.12.77-4.81-.65-4.76-1.48-7.67-2.51-8.73q-3.72-5.11-6.42-4.5-5.44,1.29-7.47,5.46a22.71,22.71,0,0,0-2.17,5.27,12.32,12.32,0,0,0-.42,5.52l.33,4.83a5.56,5.56,0,0,1,.71-2.15,31.2,31.2,0,0,0,2.4-4.56A19.75,19.75,0,0,1,292.79,299.81Z" transform="translate(-232.87 -55.66)"/><path class="cls-1" d="M303.73,430.42a23.77,23.77,0,0,0,1.23-2.94l2.39-8c.55-3.21.66-4.92.35-5.14-.16-.15-.48.11-1,.78l-4,6.69a7.39,7.39,0,0,1-1.58,1.74,3.13,3.13,0,0,1-2.37.61c-.22.08-.82-.35-1.79-1.29a.45.45,0,0,0-.46,0,3.52,3.52,0,0,0-1,.88q-2.3,3.64-3,3.81-3.06.33-3.63-.45c-.46-.3-1-2-1.57-5.2l-3.62-2.55q.21,8.63,2.85,12.61a18.5,18.5,0,0,0,5.49,3.78,8.3,8.3,0,0,0,4.67.47A13.61,13.61,0,0,0,303.73,430.42Z" transform="translate(-232.87 -55.66)"/><path class="cls-1" d="M289.3,436.35c-.51-.48-1.76-1.42-3.73-2.83a17.8,17.8,0,0,1-1.45-1.35c-.36-.4-.95-1.18-1.78-2.33-.42-.26-.69,0-.8.71a15.26,15.26,0,0,0,.06,3.88.33.33,0,0,1-.23.28,1,1,0,0,1-.56,0l-1.68-.57a2.06,2.06,0,0,0-.74,0q-.72.1-1.11,1.26a.49.49,0,0,1-.43,0,11.34,11.34,0,0,1-2.46-2.35,1.72,1.72,0,0,1-.32-.77l-3.44-2.87a19.38,19.38,0,0,0,5.92,7.7,13.42,13.42,0,0,0,3.6,2.19,13.72,13.72,0,0,0,5,1,20.07,20.07,0,0,0,4.75-.43c1.24-.29,1.75-.59,1.52-.89A9.5,9.5,0,0,0,289.3,436.35Z" transform="translate(-232.87 -55.66)"/><path class="cls-1" d="M301.83,415.81l2.08-2.79,3.14-3.2a3,3,0,0,0,.61-1.09,2,2,0,0,0,.08-.59c-.21-.78-.29-1.15-.23-1.13l1.11-4.24a3.87,3.87,0,0,0,0-2c-.06-.31-.24-.43-.53-.34-1.5,1-2.32,1.37-2.46,1.07a4.88,4.88,0,0,1-.24-1.16c-.19-2.32-.35-3.94-.47-4.84a13.26,13.26,0,0,0-.68-2.45,4.38,4.38,0,0,0-3.06-2.88.51.51,0,0,0-.21.38,8.43,8.43,0,0,1,0,2.67,14.38,14.38,0,0,1-1,2.67,2.88,2.88,0,0,0-.15,1,16.57,16.57,0,0,0,.41,2.87,43.87,43.87,0,0,1,1.08,4.4,17.73,17.73,0,0,1,.07,2.89,19,19,0,0,1-2.27,7.12l-1.38,4.8a2.74,2.74,0,0,0,.94-.49Z" transform="translate(-232.87 -55.66)"/><path class="cls-1" d="M360.38,450.13l-.05,0-.31.06H360l-.1,0h-.11l.28,0,.14,0h.07l.13,0h0v-.05h0Z" transform="translate(-232.87 -55.66)"/><path class="cls-1" d="M385.47,427.09a22.81,22.81,0,0,0,9-1.93,61.89,61.89,0,0,0,20.16-13.4,56.17,56.17,0,0,0,9.89-12.89,63.31,63.31,0,0,0,2.45-11,75.57,75.57,0,0,0-.64-8.27l.28-2.1-4.2,11.42q-10.17,18.7-19.65,27a10.21,10.21,0,0,1-4.17,2.45,125.1,125.1,0,0,0-14.26,4.19q-4.18,1.68-4,2.41Q379.68,426.84,385.47,427.09Z" transform="translate(-232.87 -55.66)"/><path class="cls-1" d="M462.33,398.87a56.17,56.17,0,0,0,9.89,12.89,61.89,61.89,0,0,0,20.16,13.4,22.81,22.81,0,0,0,9,1.93q5.79-.25,5.15-2.1.18-.74-4-2.41a125.1,125.1,0,0,0-14.26-4.19,10.31,10.31,0,0,1-4.18-2.45q-9.46-8.31-19.65-27l-4.19-11.42.28,2.1a75.57,75.57,0,0,0-.64,8.27A63.31,63.31,0,0,0,462.33,398.87Z" transform="translate(-232.87 -55.66)"/><path class="cls-1" d="M425.5,412.44a19.41,19.41,0,0,0,.53,6.67,30.49,30.49,0,0,0,4.1,8.39,24.1,24.1,0,0,0,4.72,4.64q1.63,1.64,5.71,2.37l2.27,0c.2.11.32-.46.37-1.71a4.18,4.18,0,0,0-.28-2.17q-8.22-1.69-10.25-7.58c-.42-.51-1.08-2.75-2-6.75-.25-1.9-.38-3.12-.38-3.68v-7.8l.59-9.51a17.22,17.22,0,0,1-.77,3.35,27.06,27.06,0,0,1-2.87,5.57,12.27,12.27,0,0,0-.95,2.95A33.79,33.79,0,0,0,425.5,412.44Z" transform="translate(-232.87 -55.66)"/><path class="cls-1" d="M444,434.53l2.27,0q4.08-.74,5.71-2.37a24,24,0,0,0,4.71-4.64,30.51,30.51,0,0,0,4.11-8.39,19.41,19.41,0,0,0,.53-6.67,35,35,0,0,0-.8-5.24,12.29,12.29,0,0,0-1-2.95,27.15,27.15,0,0,1-2.86-5.57,17.22,17.22,0,0,1-.77-3.35l.58,9.51v7.8a36.77,36.77,0,0,1-.37,3.68c-.9,4-1.56,6.24-2,6.75q-2,5.88-10.25,7.58a4.07,4.07,0,0,0-.28,2.17C443.7,434.07,443.82,434.64,444,434.53Z" transform="translate(-232.87 -55.66)"/><path class="cls-1" d="M346.22,475.43q1.75-2.16,3.82-8.52l.31-1.51q.56-7.15.9-7.77,1.17-4.31,1.34-5.34a32.28,32.28,0,0,1,.86-5.6,27.2,27.2,0,0,1,1.36-4.31q-.48-.6,7.58-9.14l9-8.69A52.89,52.89,0,0,0,360,429q-8.28,5.22-9.76,8.37-3,5.49-4.23,17.75-.13,1-.3,4.38a77.4,77.4,0,0,0,1.06,11Z" transform="translate(-232.87 -55.66)"/><path class="cls-1" d="M532,442.38a26.45,26.45,0,0,1,1.35,4.31,30.79,30.79,0,0,1,.87,5.6q.16,1,1.34,5.34.35.62.9,7.77l.31,1.51q2.06,6.36,3.82,8.52l-.5-4.93a76,76,0,0,0,1-11q-.15-3.42-.3-4.38-1.18-12.27-4.22-17.75-1.47-3.15-9.77-8.37a52.8,52.8,0,0,0-11.44-4.44l9,8.69Q532.52,441.79,532,442.38Z" transform="translate(-232.87 -55.66)"/></svg>