<svg id="Camada_1" data-name="Camada 1" xmlns="http://www.w3.org/2000/svg" viewBox="0 0 219.02 208.26"><defs><style>.cls-1{fill:#fff;}</style></defs><title>white-logo</title><polygon class="cls-1" points="219.02 135.26 217.18 137.1 202.8 151.48 202.38 151.91 193.64 160.64 185.73 168.56 179.25 175.03 170.09 184.19 168.07 184.19 155.71 171.83 152.44 168.56 120.98 137.1 154.27 137.1 155.71 138.54 169.08 151.91 185.73 135.26 179.25 128.78 169.08 118.61 163.29 112.82 155.71 105.24 152.44 101.97 139.01 88.54 135.79 85.32 152.43 68.67 156.84 64.26 181.32 64.26 202.38 85.32 199.15 88.54 172.3 88.54 219.02 135.26"/><rect class="cls-1" x="481.34" y="386.32" width="24.28" height="23.55" rx="11.77" transform="translate(-423.45 263.67) rotate(-45)"/><polygon class="cls-1" points="123.74 39.98 90.45 39.98 85.08 34.61 85.08 33.01 84.28 33.81 78.11 39.98 67.63 50.46 60.8 57.29 53.83 64.26 50.99 67.11 36.52 81.57 34.34 83.76 36.52 85.94 60.8 110.22 60.8 112.82 63.4 112.82 68.67 118.09 85.08 134.5 85.08 136.02 84 137.1 87.68 137.1 85.84 135.26 85.08 134.5 85.08 101.68 85.32 101.44 85.08 101.2 85.08 88.54 63.89 88.54 68.16 84.28 84.8 67.63 85.08 67.91 101.97 84.8 108.62 91.45 108.62 112.48 108.28 112.82 108.62 112.82 108.62 192.38 85.32 169.08 85.08 168.84 76.88 160.64 51.5 135.26 36.52 120.28 34.34 118.1 0 83.76 12.24 71.52 17.17 66.59 19.5 64.26 36.52 47.24 43.78 39.98 50.47 33.3 60.8 22.96 67.12 16.65 68.06 15.7 83.76 0 85.08 1.32 99.46 15.7 100.93 17.17 123.74 39.98"/></svg>