<?xml version="1.0" encoding="utf-8"?>
<svg xmlns="http://www.w3.org/2000/svg" viewBox="0 0 24 24" width="96" height="96">
  <path d="M13 1L13 4L9 4L9 6L13 6L13 9L17 5L13 1 z M 5.4140625 1.9960938L2.0039062 2.0136719L2.0136719 4.0136719L4.0839844 4.0039062L7.3789062 11.908203L6.1816406 13.824219C5.7816406 14.464219 5.7609531 15.272641 6.1269531 15.931641C6.4929531 16.590641 7.1874063 17 7.9414062 17L20 17L20 15L7.9414062 15L7.8769531 14.882812L9.0527344 13L16.521484 13C17.248484 13 17.917531 12.606656 18.269531 11.972656L22.382812 4.5664062L20.634766 3.5957031L16.521484 11L9.1660156 11L5.4140625 1.9960938 z M 8 18 A 2 2 0 0 0 6 20 A 2 2 0 0 0 8 22 A 2 2 0 0 0 10 20 A 2 2 0 0 0 8 18 z M 18 18 A 2 2 0 0 0 16 20 A 2 2 0 0 0 18 22 A 2 2 0 0 0 20 20 A 2 2 0 0 0 18 18 z" fill="#FFFFFF" />
</svg>