<?xml version="1.0" encoding="utf-8"?>
<svg xmlns="http://www.w3.org/2000/svg" viewBox="0 0 32 32" width="96" height="96">
  <path d="M0 7L0 10L2 10L2 9L30 9L30 10L32 10L32 7 Z M 1 12L1 20L3 20L3 15.34375L3.1875 15.59375L4 16.65625L4.8125 15.59375L5 15.34375L5 20L7 20L7 12L5 12L4.6875 12.40625L4 13.3125L3.3125 12.40625L3 12 Z M 8 12L8 13.28125L8.15625 13.53125L10 16.4375L10 20L12 20L12 16.4375L13.84375 13.53125L14 13.28125L14 12L12 12L12 12.71875L11 14.28125L10 12.71875L10 12 Z M 17.5 12C16.117188 12 15 13.117188 15 14.5C15 15.882813 16.117188 17 17.5 17C17.714844 17 18 17.285156 18 17.5C18 17.800781 17.882813 18 17.5 18C17.132813 18 17.074219 17.921875 17.0625 17.90625C17.050781 17.890625 17 17.828125 17 17.59375L15 17.59375C15 18.160156 15.164063 18.796875 15.625 19.28125C16.085938 19.765625 16.769531 20 17.5 20C18.917969 20 20 18.800781 20 17.5C20 16.117188 18.882813 15 17.5 15C17.285156 15 17 14.714844 17 14.5C17 14.285156 17.285156 14 17.5 14C17.765625 14 17.847656 14.0625 17.90625 14.125C17.964844 14.1875 18 14.292969 18 14.40625L20 14.40625C20 13.816406 19.785156 13.214844 19.34375 12.75C18.902344 12.285156 18.234375 12 17.5 12 Z M 23.5 12C22.117188 12 21 13.117188 21 14.5L21 17.5C21 18.882813 22.117188 20 23.5 20L24.5 20L25 21L27 21L26 19L26 14.5C26 13.117188 24.882813 12 23.5 12 Z M 28 12L28 20L32 20L32 18L30 18L30 12 Z M 23.5 14C23.714844 14 24 14.285156 24 14.5L24 17L23 17L23.5 18C23.285156 18 23 17.714844 23 17.5L23 14.5C23 14.285156 23.285156 14 23.5 14 Z M 0 22L0 25L32 25L32 22L30 22L30 23L2 23L2 22Z" fill="#22B573" />
</svg>