<?xml version="1.0" encoding="utf-8"?>
<svg xmlns="http://www.w3.org/2000/svg" viewBox="0 0 32 32" width="96" height="96">
  <path d="M4 4L4 5L4 28L28 28L28 4L4 4 z M 6 6L26 6L26 26L6 26L6 6 z M 10.324219 14L10.324219 15.873047L12.878906 15.873047L12.878906 24.015625L14.980469 24.015625L14.980469 15.873047L17.587891 15.873047L17.587891 14L10.324219 14 z M 20.703125 14.162109C19.245125 14.268484 17.787109 14.878937 17.787109 16.898438C17.787109 19.869438 21.789062 19.870938 21.789062 21.210938C21.789062 21.337937 21.844641 22.261719 20.431641 22.261719C19.018641 22.261719 17.841797 21.373047 17.841797 21.373047L17.841797 23.527344C17.841797 23.527344 24 25.519344 24 21.027344C24 18.111344 19.960938 18.257594 19.960938 16.808594C19.960937 16.246594 20.359844 15.720703 21.464844 15.720703C22.569844 15.720703 23.546875 16.373047 23.546875 16.373047L23.619141 14.453125C23.619141 14.453125 22.161125 14.055734 20.703125 14.162109 z" fill="#22B573" />
</svg>