<?xml version="1.0" encoding="utf-8"?>
<svg xmlns="http://www.w3.org/2000/svg" viewBox="0 0 24 24" width="96" height="96">
  <path d="M5 3C3.9069372 3 3 3.9069372 3 5L3 19C3 20.093063 3.9069372 21 5 21L19 21C20.093063 21 21 20.093063 21 19L21 5C21 3.9069372 20.093063 3 19 3L5 3 z M 5 5L19 5L19 9L5 9L5 5 z M 7 6 A 1 1 0 0 0 6 7 A 1 1 0 0 0 7 8 A 1 1 0 0 0 8 7 A 1 1 0 0 0 7 6 z M 10 6 A 1 1 0 0 0 9 7 A 1 1 0 0 0 10 8 A 1 1 0 0 0 11 7 A 1 1 0 0 0 10 6 z M 13 6L13 8L17 8L17 6L13 6 z M 5 11L19 11L19 19L5 19L5 11 z M 8.5 12 A 1.5 1.5 0 0 0 7 13.5 A 1.5 1.5 0 0 0 8.5 15 A 1.5 1.5 0 0 0 10 13.5 A 1.5 1.5 0 0 0 8.5 12 z M 13 13L13 15L17 15L17 13L13 13 z M 8.5 16C7.666 16 6 16.419 6 17.25L6 18L11 18L11 17.25C11 16.419 9.334 16 8.5 16 z M 13 16L13 18L17 18L17 16L13 16 z" fill="#FFFFFF" />
</svg>