<svg width="142" height="51" viewBox="0 0 142 51" fill="none" xmlns="http://www.w3.org/2000/svg">
<path d="M24.5 50.4748C38.031 50.4748 49 39.2713 49 25.4511C49 11.631 38.031 0.42749 24.5 0.42749C10.969 0.42749 0 11.631 0 25.4511C0 39.2713 10.969 50.4748 24.5 50.4748Z" fill="#0095A8"/>
<path d="M77.5031 35.8784H81.7035V13.1853H77.5031V35.8784Z" fill="#0095A8"/>
<path d="M83.8827 35.8784H88.0832V18.8868H83.8827V35.8784ZM86.0145 16.8626C87.4831 16.8626 88.5964 15.7578 88.5964 14.3546C88.5964 12.9434 87.4831 11.8386 86.0145 11.8386C84.5144 11.8386 83.4327 12.9434 83.4327 14.3546C83.4327 15.7578 84.5144 16.8626 86.0145 16.8626Z" fill="#0095A8"/>
<path d="M89.1806 27.3543C89.1806 32.5639 92.6389 36.1203 96.8393 36.1203C99.358 36.1203 101.253 34.8945 102.271 33.5477V43.9669H106.504V18.8868H102.271V21.0964C101.253 19.7819 99.4212 18.6448 96.9262 18.6448C92.6389 18.6448 89.1806 22.1367 89.1806 27.3543ZM102.271 27.3785C102.271 30.6607 100.053 32.3784 97.8579 32.3784C95.6945 32.3784 93.4758 30.6365 93.4758 27.3543C93.4758 24.0721 95.6945 22.3867 97.8579 22.3867C100.053 22.3867 102.271 24.1044 102.271 27.3785Z" fill="#0095A8"/>
<path d="M124.355 18.8868H120.123V28.2414C120.123 30.9672 118.679 32.4429 116.397 32.4429C114.178 32.4429 112.709 30.9672 112.709 28.2414V18.8868H108.501V28.8543C108.501 33.5155 111.296 36.088 115.165 36.088C117.242 36.088 119.073 35.1687 120.123 33.7332V35.8783H124.355V18.8868Z" fill="#0095A8"/>
<path d="M133.68 22.1367C135.836 22.1367 137.581 23.5479 137.644 25.7898H129.748C130.072 23.4592 131.667 22.1367 133.68 22.1367ZM141.576 30.5397H137.044C136.499 31.6768 135.512 32.5961 133.704 32.5961C131.604 32.5961 129.922 31.1849 129.717 28.6688H141.876C141.963 28.1204 141.994 27.564 141.994 27.0156C141.994 21.9512 138.599 18.6125 133.799 18.6125C128.872 18.6125 125.453 22.0157 125.453 27.3785C125.453 32.7171 128.967 36.1525 133.799 36.1525C137.912 36.1525 140.676 33.6687 141.576 30.5397Z" fill="#0095A8"/>
<path d="M65.786 29.2172C67.9576 29.2172 69.718 27.4192 69.718 25.2012C69.718 22.9832 67.9576 21.1851 65.786 21.1851C63.6145 21.1851 61.854 22.9832 61.854 25.2012C61.854 27.4192 63.6145 29.2172 65.786 29.2172Z" fill="#0095A8"/>
<path fill-rule="evenodd" clip-rule="evenodd" d="M65.786 13.3788C70.8708 13.3788 75.1897 16.7336 76.7451 21.3948H71.5182C70.2944 19.4836 68.1863 18.2174 65.786 18.2174C62.004 18.2174 58.9405 21.3464 58.9405 25.2012C58.9405 29.064 62.004 32.193 65.786 32.193C68.1863 32.193 70.2944 30.9269 71.5182 29.0156H76.7451C75.1897 33.6768 70.8708 37.0316 65.786 37.0316C59.3906 37.0316 54.2111 31.7333 54.2111 25.2012C54.2111 18.6771 59.3906 13.3788 65.786 13.3788Z" fill="#91BD1E"/>
<path fill-rule="evenodd" clip-rule="evenodd" d="M24.3263 29.4994C23.2762 29.9026 22.1471 30.1042 20.9312 30.1042H16.8334V39.7089H12.3882V25.564H16.8334H18.4599H20.2601L24.3263 29.4994Z" fill="#91BD1E"/>
<path fill-rule="evenodd" clip-rule="evenodd" d="M20.9312 10.5805C23.5604 10.5805 25.8186 11.5321 27.6819 13.4433C29.5611 15.3627 30.5007 17.6691 30.5007 20.3545C30.5007 22.3141 30.0032 24.056 29.0084 25.5963L25.6686 22.3625C25.9212 21.7416 26.0476 21.0722 26.0476 20.3545C26.0476 18.919 25.5501 17.6852 24.5474 16.661C23.5447 15.6368 22.3445 15.1288 20.9312 15.1288H18.4599H18.1993L13.5094 10.5805H20.9312Z" fill="#91BD1E"/>
<path fill-rule="evenodd" clip-rule="evenodd" d="M12.3882 24.7576V10.5805L32.1745 29.7494V10.9031H36.6197V40.3218L16.8334 21.1529V24.7576H12.3882Z" fill="#FEFEFE"/>
</svg>
